<svg width="195" height="49" viewBox="0 0 195 49" fill="none" xmlns="http://www.w3.org/2000/svg">
<rect x="0.5" y="0.5" width="194" height="48" rx="3.5" stroke="white"/>
<path d="M51.568 22.144C50.504 22.144 49.676 21.784 49.084 21.064C48.492 20.336 48.196 19.268 48.196 17.86C48.196 16.452 48.492 15.372 49.084 14.62C49.676 13.86 50.504 13.48 51.568 13.48C52.272 13.48 52.86 13.64 53.332 13.96C53.812 14.28 54.184 14.732 54.448 15.316L53.632 15.808C53.464 15.376 53.208 15.032 52.864 14.776C52.52 14.512 52.088 14.38 51.568 14.38C51.208 14.38 50.884 14.448 50.596 14.584C50.316 14.72 50.076 14.916 49.876 15.172C49.684 15.42 49.536 15.72 49.432 16.072C49.328 16.416 49.276 16.804 49.276 17.236V18.484C49.276 19.348 49.476 20.024 49.876 20.512C50.276 21 50.84 21.244 51.568 21.244C52.104 21.244 52.552 21.108 52.912 20.836C53.272 20.556 53.536 20.188 53.704 19.732L54.508 20.236C54.244 20.828 53.864 21.296 53.368 21.64C52.872 21.976 52.272 22.144 51.568 22.144ZM55.9731 13.12H56.9331V16.816H56.9811C57.1331 16.464 57.3451 16.184 57.6171 15.976C57.8971 15.768 58.2691 15.664 58.7331 15.664C59.3731 15.664 59.8771 15.872 60.2451 16.288C60.6211 16.696 60.8091 17.276 60.8091 18.028V22H59.8491V18.196C59.8491 17.084 59.3811 16.528 58.4451 16.528C58.2531 16.528 58.0651 16.552 57.8811 16.6C57.7051 16.648 57.5451 16.72 57.4011 16.816C57.2571 16.912 57.1411 17.036 57.0531 17.188C56.9731 17.332 56.9331 17.504 56.9331 17.704V22H55.9731V13.12ZM65.1214 22.144C64.6974 22.144 64.3134 22.068 63.9694 21.916C63.6334 21.764 63.3414 21.548 63.0934 21.268C62.8534 20.98 62.6654 20.64 62.5294 20.248C62.4014 19.848 62.3374 19.4 62.3374 18.904C62.3374 18.416 62.4014 17.972 62.5294 17.572C62.6654 17.172 62.8534 16.832 63.0934 16.552C63.3414 16.264 63.6334 16.044 63.9694 15.892C64.3134 15.74 64.6974 15.664 65.1214 15.664C65.5374 15.664 65.9094 15.74 66.2374 15.892C66.5654 16.044 66.8454 16.256 67.0774 16.528C67.3094 16.792 67.4854 17.108 67.6054 17.476C67.7334 17.844 67.7974 18.248 67.7974 18.688V19.144H63.3454V19.432C63.3454 19.696 63.3854 19.944 63.4654 20.176C63.5534 20.4 63.6734 20.596 63.8254 20.764C63.9854 20.932 64.1774 21.064 64.4014 21.16C64.6334 21.256 64.8934 21.304 65.1814 21.304C65.5734 21.304 65.9134 21.212 66.2014 21.028C66.4974 20.844 66.7254 20.58 66.8854 20.236L67.5694 20.728C67.3694 21.152 67.0574 21.496 66.6334 21.76C66.2094 22.016 65.7054 22.144 65.1214 22.144ZM65.1214 16.468C64.8574 16.468 64.6174 16.516 64.4014 16.612C64.1854 16.7 63.9974 16.828 63.8374 16.996C63.6854 17.164 63.5654 17.364 63.4774 17.596C63.3894 17.82 63.3454 18.068 63.3454 18.34V18.424H66.7654V18.292C66.7654 17.74 66.6134 17.3 66.3094 16.972C66.0134 16.636 65.6174 16.468 65.1214 16.468ZM71.6834 22.144C71.2514 22.144 70.8634 22.068 70.5194 21.916C70.1754 21.764 69.8834 21.548 69.6434 21.268C69.4114 20.988 69.2314 20.648 69.1034 20.248C68.9834 19.848 68.9234 19.4 68.9234 18.904C68.9234 18.408 68.9834 17.96 69.1034 17.56C69.2314 17.16 69.4114 16.82 69.6434 16.54C69.8834 16.26 70.1754 16.044 70.5194 15.892C70.8634 15.74 71.2514 15.664 71.6834 15.664C72.2994 15.664 72.7914 15.8 73.1594 16.072C73.5354 16.336 73.8154 16.684 73.9994 17.116L73.1954 17.524C73.0834 17.204 72.8994 16.956 72.6434 16.78C72.3874 16.604 72.0674 16.516 71.6834 16.516C71.3954 16.516 71.1434 16.564 70.9274 16.66C70.7114 16.748 70.5314 16.876 70.3874 17.044C70.2434 17.204 70.1354 17.4 70.0634 17.632C69.9914 17.856 69.9554 18.104 69.9554 18.376V19.432C69.9554 19.976 70.0994 20.424 70.3874 20.776C70.6834 21.12 71.1154 21.292 71.6834 21.292C72.4594 21.292 73.0194 20.932 73.3634 20.212L74.0594 20.68C73.8594 21.128 73.5594 21.484 73.1594 21.748C72.7674 22.012 72.2754 22.144 71.6834 22.144ZM75.4145 13.12H76.3745V18.748H76.4225L77.3705 17.692L79.1225 15.808H80.2865L77.9945 18.256L80.5145 22H79.3505L77.2985 18.844L76.3745 19.792V22H75.4145V13.12ZM86.9186 22.144C86.5026 22.144 86.1226 22.068 85.7786 21.916C85.4346 21.764 85.1386 21.548 84.8906 21.268C84.6506 20.98 84.4626 20.64 84.3266 20.248C84.1906 19.848 84.1226 19.4 84.1226 18.904C84.1226 18.416 84.1906 17.972 84.3266 17.572C84.4626 17.172 84.6506 16.832 84.8906 16.552C85.1386 16.264 85.4346 16.044 85.7786 15.892C86.1226 15.74 86.5026 15.664 86.9186 15.664C87.3346 15.664 87.7106 15.74 88.0466 15.892C88.3906 16.044 88.6866 16.264 88.9346 16.552C89.1826 16.832 89.3746 17.172 89.5106 17.572C89.6466 17.972 89.7146 18.416 89.7146 18.904C89.7146 19.4 89.6466 19.848 89.5106 20.248C89.3746 20.64 89.1826 20.98 88.9346 21.268C88.6866 21.548 88.3906 21.764 88.0466 21.916C87.7106 22.068 87.3346 22.144 86.9186 22.144ZM86.9186 21.292C87.4386 21.292 87.8626 21.132 88.1906 20.812C88.5186 20.492 88.6826 20.004 88.6826 19.348V18.46C88.6826 17.804 88.5186 17.316 88.1906 16.996C87.8626 16.676 87.4386 16.516 86.9186 16.516C86.3986 16.516 85.9746 16.676 85.6466 16.996C85.3186 17.316 85.1546 17.804 85.1546 18.46V19.348C85.1546 20.004 85.3186 20.492 85.6466 20.812C85.9746 21.132 86.3986 21.292 86.9186 21.292ZM95.1094 20.992H95.0614C94.9974 21.136 94.9174 21.28 94.8214 21.424C94.7334 21.56 94.6214 21.684 94.4854 21.796C94.3494 21.9 94.1854 21.984 93.9934 22.048C93.8014 22.112 93.5774 22.144 93.3214 22.144C92.6814 22.144 92.1734 21.94 91.7974 21.532C91.4214 21.116 91.2334 20.532 91.2334 19.78V15.808H92.1934V19.612C92.1934 20.724 92.6654 21.28 93.6094 21.28C93.8014 21.28 93.9854 21.256 94.1614 21.208C94.3454 21.16 94.5054 21.088 94.6414 20.992C94.7854 20.896 94.8974 20.776 94.9774 20.632C95.0654 20.48 95.1094 20.3 95.1094 20.092V15.808H96.0694V22H95.1094V20.992ZM99.4818 22C99.1458 22 98.8898 21.908 98.7138 21.724C98.5458 21.532 98.4618 21.284 98.4618 20.98V16.648H97.4418V15.808H98.0178C98.2258 15.808 98.3658 15.768 98.4378 15.688C98.5178 15.6 98.5578 15.452 98.5578 15.244V14.092H99.4218V15.808H100.778V16.648H99.4218V21.16H100.682V22H99.4818ZM106.525 22C106.189 22 105.933 21.908 105.757 21.724C105.589 21.532 105.505 21.284 105.505 20.98V16.648H104.485V15.808H105.061C105.269 15.808 105.409 15.768 105.481 15.688C105.561 15.6 105.601 15.452 105.601 15.244V14.092H106.465V15.808H107.821V16.648H106.465V21.16H107.725V22H106.525ZM109.364 13.12H110.324V16.816H110.372C110.524 16.464 110.736 16.184 111.008 15.976C111.288 15.768 111.66 15.664 112.124 15.664C112.764 15.664 113.268 15.872 113.636 16.288C114.012 16.696 114.2 17.276 114.2 18.028V22H113.24V18.196C113.24 17.084 112.772 16.528 111.836 16.528C111.644 16.528 111.456 16.552 111.272 16.6C111.096 16.648 110.936 16.72 110.792 16.816C110.648 16.912 110.532 17.036 110.444 17.188C110.364 17.332 110.324 17.504 110.324 17.704V22H109.364V13.12ZM118.512 22.144C118.088 22.144 117.704 22.068 117.36 21.916C117.024 21.764 116.732 21.548 116.484 21.268C116.244 20.98 116.056 20.64 115.92 20.248C115.792 19.848 115.728 19.4 115.728 18.904C115.728 18.416 115.792 17.972 115.92 17.572C116.056 17.172 116.244 16.832 116.484 16.552C116.732 16.264 117.024 16.044 117.36 15.892C117.704 15.74 118.088 15.664 118.512 15.664C118.928 15.664 119.3 15.74 119.628 15.892C119.956 16.044 120.236 16.256 120.468 16.528C120.7 16.792 120.876 17.108 120.996 17.476C121.124 17.844 121.188 18.248 121.188 18.688V19.144H116.736V19.432C116.736 19.696 116.776 19.944 116.856 20.176C116.944 20.4 117.064 20.596 117.216 20.764C117.376 20.932 117.568 21.064 117.792 21.16C118.024 21.256 118.284 21.304 118.572 21.304C118.964 21.304 119.304 21.212 119.592 21.028C119.888 20.844 120.116 20.58 120.276 20.236L120.96 20.728C120.76 21.152 120.448 21.496 120.024 21.76C119.6 22.016 119.096 22.144 118.512 22.144ZM118.512 16.468C118.248 16.468 118.008 16.516 117.792 16.612C117.576 16.7 117.388 16.828 117.228 16.996C117.076 17.164 116.956 17.364 116.868 17.596C116.78 17.82 116.736 18.068 116.736 18.34V18.424H120.156V18.292C120.156 17.74 120.004 17.3 119.7 16.972C119.404 16.636 119.008 16.468 118.512 16.468ZM49.984 29.624V34.772C49.984 35.428 50.108 35.92 50.356 36.248C50.612 36.576 51.04 36.74 51.64 36.74C52.24 36.74 52.664 36.576 52.912 36.248C53.168 35.92 53.296 35.428 53.296 34.772V29.624H54.856V34.568C54.856 35.184 54.796 35.716 54.676 36.164C54.564 36.612 54.38 36.984 54.124 37.28C53.868 37.576 53.532 37.796 53.116 37.94C52.708 38.076 52.212 38.144 51.628 38.144C51.036 38.144 50.536 38.076 50.128 37.94C49.728 37.796 49.4 37.576 49.144 37.28C48.888 36.984 48.704 36.612 48.592 36.164C48.48 35.716 48.424 35.184 48.424 34.568V29.624H49.984ZM56.6732 38V31.736H58.2092V33.032H58.2692C58.3092 32.864 58.3692 32.704 58.4492 32.552C58.5372 32.392 58.6492 32.252 58.7852 32.132C58.9212 32.012 59.0812 31.916 59.2652 31.844C59.4572 31.772 59.6772 31.736 59.9252 31.736H60.2612V33.188H59.7812C59.2612 33.188 58.8692 33.264 58.6052 33.416C58.3412 33.568 58.2092 33.816 58.2092 34.16V38H56.6732ZM63.8575 38.144C63.3935 38.144 62.9775 38.068 62.6095 37.916C62.2495 37.756 61.9415 37.536 61.6855 37.256C61.4375 36.968 61.2455 36.624 61.1095 36.224C60.9735 35.816 60.9055 35.36 60.9055 34.856C60.9055 34.36 60.9695 33.912 61.0975 33.512C61.2335 33.112 61.4255 32.772 61.6735 32.492C61.9215 32.204 62.2255 31.984 62.5855 31.832C62.9455 31.672 63.3535 31.592 63.8095 31.592C64.2975 31.592 64.7215 31.676 65.0815 31.844C65.4415 32.012 65.7375 32.24 65.9695 32.528C66.2015 32.816 66.3735 33.152 66.4855 33.536C66.6055 33.912 66.6655 34.316 66.6655 34.748V35.252H62.5015V35.408C62.5015 35.864 62.6295 36.232 62.8855 36.512C63.1415 36.784 63.5215 36.92 64.0255 36.92C64.4095 36.92 64.7215 36.84 64.9615 36.68C65.2095 36.52 65.4295 36.316 65.6215 36.068L66.4495 36.992C66.1935 37.352 65.8415 37.636 65.3935 37.844C64.9535 38.044 64.4415 38.144 63.8575 38.144ZM63.8335 32.744C63.4255 32.744 63.1015 32.88 62.8615 33.152C62.6215 33.424 62.5015 33.776 62.5015 34.208V34.304H65.0695V34.196C65.0695 33.764 64.9615 33.416 64.7455 33.152C64.5375 32.88 64.2335 32.744 63.8335 32.744ZM70.4889 38.144C70.0249 38.144 69.6129 38.068 69.2529 37.916C68.8929 37.764 68.5889 37.544 68.3409 37.256C68.1009 36.968 67.9169 36.624 67.7889 36.224C67.6609 35.816 67.5969 35.36 67.5969 34.856C67.5969 34.352 67.6609 33.9 67.7889 33.5C67.9169 33.1 68.1009 32.76 68.3409 32.48C68.5889 32.192 68.8929 31.972 69.2529 31.82C69.6129 31.668 70.0249 31.592 70.4889 31.592C71.1209 31.592 71.6409 31.732 72.0489 32.012C72.4649 32.292 72.7649 32.68 72.9489 33.176L71.6889 33.74C71.6169 33.476 71.4809 33.26 71.2809 33.092C71.0889 32.916 70.8249 32.828 70.4889 32.828C70.0569 32.828 69.7329 32.964 69.5169 33.236C69.3089 33.508 69.2049 33.864 69.2049 34.304V35.444C69.2049 35.884 69.3089 36.24 69.5169 36.512C69.7329 36.776 70.0569 36.908 70.4889 36.908C70.8569 36.908 71.1409 36.816 71.3409 36.632C71.5409 36.44 71.6969 36.204 71.8089 35.924L72.9849 36.488C72.7769 37.04 72.4609 37.456 72.0369 37.736C71.6129 38.008 71.0969 38.144 70.4889 38.144ZM74.1693 29.12H75.7053V34.472H75.7653L76.5933 33.344L77.9973 31.736H79.7373L77.5773 34.16L79.9653 38H78.1413L76.5333 35.192L75.7053 36.092V38H74.1693V29.12ZM83.0986 38.144C82.6506 38.144 82.2466 38.068 81.8866 37.916C81.5346 37.764 81.2306 37.544 80.9746 37.256C80.7266 36.968 80.5346 36.624 80.3986 36.224C80.2626 35.816 80.1946 35.36 80.1946 34.856C80.1946 34.352 80.2626 33.9 80.3986 33.5C80.5346 33.1 80.7266 32.76 80.9746 32.48C81.2306 32.192 81.5346 31.972 81.8866 31.82C82.2466 31.668 82.6506 31.592 83.0986 31.592C83.5466 31.592 83.9506 31.668 84.3106 31.82C84.6706 31.972 84.9746 32.192 85.2226 32.48C85.4786 32.76 85.6746 33.1 85.8106 33.5C85.9466 33.9 86.0146 34.352 86.0146 34.856C86.0146 35.36 85.9466 35.816 85.8106 36.224C85.6746 36.624 85.4786 36.968 85.2226 37.256C84.9746 37.544 84.6706 37.764 84.3106 37.916C83.9506 38.068 83.5466 38.144 83.0986 38.144ZM83.0986 36.908C83.5066 36.908 83.8266 36.784 84.0586 36.536C84.2906 36.288 84.4066 35.924 84.4066 35.444V34.28C84.4066 33.808 84.2906 33.448 84.0586 33.2C83.8266 32.952 83.5066 32.828 83.0986 32.828C82.6986 32.828 82.3826 32.952 82.1506 33.2C81.9186 33.448 81.8026 33.808 81.8026 34.28V35.444C81.8026 35.924 81.9186 36.288 82.1506 36.536C82.3826 36.784 82.6986 36.908 83.0986 36.908ZM87.3763 38V31.736H88.9123V32.78H88.9723C89.1003 32.444 89.3003 32.164 89.5723 31.94C89.8523 31.708 90.2363 31.592 90.7243 31.592C91.3723 31.592 91.8683 31.804 92.2123 32.228C92.5563 32.652 92.7283 33.256 92.7283 34.04V38H91.1923V34.196C91.1923 33.748 91.1123 33.412 90.9523 33.188C90.7923 32.964 90.5283 32.852 90.1603 32.852C90.0003 32.852 89.8443 32.876 89.6923 32.924C89.5483 32.964 89.4163 33.028 89.2963 33.116C89.1843 33.196 89.0923 33.3 89.0203 33.428C88.9483 33.548 88.9123 33.692 88.9123 33.86V38H87.3763ZM95.1318 29C95.4598 29 95.6958 29.08 95.8398 29.24C95.9918 29.392 96.0678 29.584 96.0678 29.816V30.044C96.0678 30.26 96.0358 30.48 95.9718 30.704C95.9158 30.92 95.8318 31.132 95.7198 31.34C95.6078 31.548 95.4758 31.744 95.3238 31.928C95.1718 32.112 95.0078 32.276 94.8318 32.42H93.7998C94.0558 32.18 94.2718 31.94 94.4478 31.7C94.6238 31.452 94.7558 31.18 94.8438 30.884C94.6118 30.844 94.4438 30.752 94.3398 30.608C94.2358 30.456 94.1838 30.28 94.1838 30.08V29.816C94.1838 29.584 94.2558 29.392 94.3998 29.24C94.5518 29.08 94.7958 29 95.1318 29ZM103.4 38H97.5917V36.536L100.22 34.232C100.668 33.84 100.996 33.488 101.204 33.176C101.412 32.856 101.516 32.512 101.516 32.144V31.988C101.516 31.62 101.396 31.34 101.156 31.148C100.916 30.948 100.624 30.848 100.28 30.848C99.8477 30.848 99.5197 30.972 99.2957 31.22C99.0717 31.46 98.9117 31.752 98.8157 32.096L97.4477 31.568C97.5357 31.288 97.6597 31.024 97.8197 30.776C97.9797 30.52 98.1797 30.296 98.4197 30.104C98.6677 29.912 98.9557 29.76 99.2837 29.648C99.6117 29.536 99.9877 29.48 100.412 29.48C100.852 29.48 101.244 29.544 101.588 29.672C101.932 29.792 102.22 29.964 102.452 30.188C102.692 30.412 102.872 30.676 102.992 30.98C103.12 31.284 103.184 31.616 103.184 31.976C103.184 32.328 103.128 32.648 103.016 32.936C102.904 33.224 102.752 33.5 102.56 33.764C102.368 34.02 102.144 34.268 101.888 34.508C101.632 34.74 101.36 34.976 101.072 35.216L99.3077 36.668H103.4V38ZM110.595 38H104.787V36.536L107.415 34.232C107.863 33.84 108.191 33.488 108.399 33.176C108.607 32.856 108.711 32.512 108.711 32.144V31.988C108.711 31.62 108.591 31.34 108.351 31.148C108.111 30.948 107.819 30.848 107.475 30.848C107.043 30.848 106.715 30.972 106.491 31.22C106.267 31.46 106.107 31.752 106.011 32.096L104.643 31.568C104.731 31.288 104.855 31.024 105.015 30.776C105.175 30.52 105.375 30.296 105.615 30.104C105.863 29.912 106.151 29.76 106.479 29.648C106.807 29.536 107.183 29.48 107.607 29.48C108.047 29.48 108.439 29.544 108.783 29.672C109.127 29.792 109.415 29.964 109.647 30.188C109.887 30.412 110.067 30.676 110.187 30.98C110.315 31.284 110.379 31.616 110.379 31.976C110.379 32.328 110.323 32.648 110.211 32.936C110.099 33.224 109.947 33.5 109.755 33.764C109.563 34.02 109.339 34.268 109.083 34.508C108.827 34.74 108.555 34.976 108.267 35.216L106.503 36.668H110.595V38ZM118.346 38.144C117.794 38.144 117.294 38.052 116.846 37.868C116.398 37.684 116.014 37.408 115.694 37.04C115.382 36.672 115.138 36.22 114.962 35.684C114.786 35.148 114.698 34.524 114.698 33.812C114.698 33.108 114.786 32.488 114.962 31.952C115.138 31.408 115.382 30.952 115.694 30.584C116.014 30.216 116.398 29.94 116.846 29.756C117.294 29.572 117.794 29.48 118.346 29.48C118.898 29.48 119.398 29.572 119.846 29.756C120.294 29.94 120.678 30.216 120.998 30.584C121.318 30.952 121.562 31.408 121.73 31.952C121.906 32.488 121.994 33.108 121.994 33.812C121.994 34.524 121.906 35.148 121.73 35.684C121.562 36.22 121.318 36.672 120.998 37.04C120.678 37.408 120.294 37.684 119.846 37.868C119.398 38.052 118.898 38.144 118.346 38.144ZM118.346 36.74C118.946 36.74 119.422 36.54 119.774 36.14C120.134 35.74 120.314 35.18 120.314 34.46V33.164C120.314 32.444 120.134 31.884 119.774 31.484C119.422 31.084 118.946 30.884 118.346 30.884C117.746 30.884 117.266 31.084 116.906 31.484C116.554 31.884 116.378 32.444 116.378 33.164V34.46C116.378 35.18 116.554 35.74 116.906 36.14C117.266 36.54 117.746 36.74 118.346 36.74ZM123.817 32.948H122.893V31.736H123.817V30.836C123.817 30.284 123.961 29.86 124.249 29.564C124.545 29.268 124.977 29.12 125.545 29.12H126.637V30.344H125.353V31.736H126.637V32.948H125.353V38H123.817V32.948ZM128.048 32.948H127.124V31.736H128.048V30.836C128.048 30.284 128.192 29.86 128.48 29.564C128.776 29.268 129.208 29.12 129.776 29.12H130.868V30.344H129.584V31.736H133.448V38H131.912V32.948H129.584V38H128.048V32.948ZM132.68 30.824C132.36 30.824 132.128 30.752 131.984 30.608C131.848 30.464 131.78 30.28 131.78 30.056V29.816C131.78 29.592 131.848 29.408 131.984 29.264C132.128 29.12 132.36 29.048 132.68 29.048C132.992 29.048 133.22 29.12 133.364 29.264C133.508 29.408 133.58 29.592 133.58 29.816V30.056C133.58 30.28 133.508 30.464 133.364 30.608C133.22 30.752 132.992 30.824 132.68 30.824ZM137.696 38.144C137.232 38.144 136.82 38.068 136.46 37.916C136.1 37.764 135.796 37.544 135.548 37.256C135.308 36.968 135.124 36.624 134.996 36.224C134.868 35.816 134.804 35.36 134.804 34.856C134.804 34.352 134.868 33.9 134.996 33.5C135.124 33.1 135.308 32.76 135.548 32.48C135.796 32.192 136.1 31.972 136.46 31.82C136.82 31.668 137.232 31.592 137.696 31.592C138.328 31.592 138.848 31.732 139.256 32.012C139.672 32.292 139.972 32.68 140.156 33.176L138.896 33.74C138.824 33.476 138.688 33.26 138.488 33.092C138.296 32.916 138.032 32.828 137.696 32.828C137.264 32.828 136.94 32.964 136.724 33.236C136.516 33.508 136.412 33.864 136.412 34.304V35.444C136.412 35.884 136.516 36.24 136.724 36.512C136.94 36.776 137.264 36.908 137.696 36.908C138.064 36.908 138.348 36.816 138.548 36.632C138.748 36.44 138.904 36.204 139.016 35.924L140.192 36.488C139.984 37.04 139.668 37.456 139.244 37.736C138.82 38.008 138.304 38.144 137.696 38.144ZM142.144 30.824C141.824 30.824 141.592 30.752 141.448 30.608C141.312 30.464 141.244 30.28 141.244 30.056V29.816C141.244 29.592 141.312 29.408 141.448 29.264C141.592 29.12 141.824 29.048 142.144 29.048C142.456 29.048 142.684 29.12 142.828 29.264C142.972 29.408 143.044 29.592 143.044 29.816V30.056C143.044 30.28 142.972 30.464 142.828 30.608C142.684 30.752 142.456 30.824 142.144 30.824ZM141.376 31.736H142.912V38H141.376V31.736ZM149.301 38C148.965 38 148.697 37.904 148.497 37.712C148.305 37.512 148.185 37.248 148.137 36.92H148.065C147.961 37.328 147.749 37.636 147.429 37.844C147.109 38.044 146.713 38.144 146.241 38.144C145.601 38.144 145.109 37.976 144.765 37.64C144.421 37.304 144.249 36.856 144.249 36.296C144.249 35.648 144.481 35.168 144.945 34.856C145.409 34.536 146.069 34.376 146.925 34.376H147.993V33.92C147.993 33.568 147.901 33.296 147.717 33.104C147.533 32.912 147.237 32.816 146.829 32.816C146.469 32.816 146.177 32.896 145.953 33.056C145.737 33.208 145.553 33.392 145.401 33.608L144.489 32.792C144.721 32.432 145.029 32.144 145.413 31.928C145.797 31.704 146.305 31.592 146.937 31.592C147.785 31.592 148.429 31.784 148.869 32.168C149.309 32.552 149.529 33.104 149.529 33.824V36.776H150.153V38H149.301ZM146.757 37.028C147.101 37.028 147.393 36.952 147.633 36.8C147.873 36.648 147.993 36.424 147.993 36.128V35.3H147.009C146.209 35.3 145.809 35.556 145.809 36.068V36.272C145.809 36.528 145.889 36.72 146.049 36.848C146.217 36.968 146.453 37.028 146.757 37.028ZM152.932 38C152.404 38 152.016 37.868 151.768 37.604C151.52 37.34 151.396 36.968 151.396 36.488V29.12H152.932V36.776H153.76V38H152.932ZM163.039 38L162.367 35.864H159.391L158.731 38H157.123L159.931 29.624H161.899L164.683 38H163.039ZM160.903 31.064H160.843L159.775 34.508H161.983L160.903 31.064ZM165.822 31.736H167.358V32.768H167.406C167.518 32.408 167.73 32.124 168.042 31.916C168.354 31.7 168.718 31.592 169.134 31.592C169.934 31.592 170.542 31.876 170.958 32.444C171.382 33.004 171.594 33.808 171.594 34.856C171.594 35.912 171.382 36.724 170.958 37.292C170.542 37.86 169.934 38.144 169.134 38.144C168.718 38.144 168.354 38.036 168.042 37.82C167.738 37.604 167.526 37.316 167.406 36.956H167.358V40.4H165.822V31.736ZM168.642 36.872C169.042 36.872 169.366 36.74 169.614 36.476C169.862 36.212 169.986 35.856 169.986 35.408V34.328C169.986 33.88 169.862 33.524 169.614 33.26C169.366 32.988 169.042 32.852 168.642 32.852C168.274 32.852 167.966 32.944 167.718 33.128C167.478 33.312 167.358 33.556 167.358 33.86V35.852C167.358 36.18 167.478 36.432 167.718 36.608C167.966 36.784 168.274 36.872 168.642 36.872ZM173.017 31.736H174.553V32.768H174.601C174.713 32.408 174.925 32.124 175.237 31.916C175.549 31.7 175.913 31.592 176.329 31.592C177.129 31.592 177.737 31.876 178.153 32.444C178.577 33.004 178.789 33.808 178.789 34.856C178.789 35.912 178.577 36.724 178.153 37.292C177.737 37.86 177.129 38.144 176.329 38.144C175.913 38.144 175.549 38.036 175.237 37.82C174.933 37.604 174.721 37.316 174.601 36.956H174.553V40.4H173.017V31.736ZM175.837 36.872C176.237 36.872 176.561 36.74 176.809 36.476C177.057 36.212 177.181 35.856 177.181 35.408V34.328C177.181 33.88 177.057 33.524 176.809 33.26C176.561 32.988 176.237 32.852 175.837 32.852C175.469 32.852 175.161 32.944 174.913 33.128C174.673 33.312 174.553 33.556 174.553 33.86V35.852C174.553 36.18 174.673 36.432 174.913 36.608C175.161 36.784 175.469 36.872 175.837 36.872Z" fill="white"/>
<path d="M20.6236 32.9348C20.6236 33.6921 21.2455 34.3103 22.0107 34.3103H23.5964V38.207C23.5964 39.1941 24.3941 40 25.3742 40C26.3575 40 27.152 39.1974 27.152 38.207V34.3071H29.9196V38.2038C29.9196 39.1909 30.7174 39.9968 31.6974 39.9968C32.6808 39.9968 33.4752 39.1941 33.4752 38.2038V34.3071H35.0609C35.8261 34.3071 36.448 33.6889 36.448 32.9316V20.1411H20.6236V32.9348V32.9348ZM32.251 13.5128L33.7129 11.4091C33.7976 11.2861 33.7781 11.121 33.6641 11.0401C33.5501 10.9625 33.3873 11.0013 33.3027 11.1243L31.7854 13.3121C30.7857 12.9205 29.6722 12.7037 28.5032 12.7037C27.3343 12.7037 26.2208 12.9205 25.2211 13.3121L23.7038 11.1275C23.6192 11.0045 23.4564 10.9625 23.3424 11.0434C23.2284 11.121 23.2089 11.2829 23.2936 11.4123L24.7555 13.516C22.4307 14.5905 20.8027 16.6263 20.5943 19.0051H36.4187C36.2038 16.623 34.5725 14.5873 32.251 13.5128V13.5128ZM25.1625 16.8302C24.9893 16.8302 24.82 16.7791 24.6759 16.6834C24.5319 16.5878 24.4196 16.4518 24.3533 16.2927C24.287 16.1336 24.2697 15.9586 24.3035 15.7897C24.3373 15.6208 24.4207 15.4657 24.5432 15.3439C24.6657 15.2222 24.8218 15.1393 24.9917 15.1057C25.1616 15.0721 25.3377 15.0893 25.4977 15.1552C25.6578 15.2211 25.7946 15.3327 25.8908 15.4759C25.987 15.619 26.0384 15.7874 26.0384 15.9596C26.0378 16.1903 25.9453 16.4114 25.7812 16.5745C25.6171 16.7376 25.3946 16.8296 25.1625 16.8302V16.8302ZM31.9482 16.8302C31.7749 16.8302 31.6056 16.7791 31.4615 16.6834C31.3175 16.5878 31.2052 16.4518 31.1389 16.2927C31.0727 16.1336 31.0553 15.9586 31.0891 15.7897C31.1229 15.6208 31.2063 15.4657 31.3288 15.3439C31.4513 15.2222 31.6074 15.1393 31.7773 15.1057C31.9472 15.0721 32.1233 15.0893 32.2833 15.1552C32.4434 15.2211 32.5802 15.3327 32.6764 15.4759C32.7727 15.619 32.824 15.7874 32.824 15.9596C32.8234 16.1903 32.731 16.4114 32.5668 16.5745C32.4027 16.7376 32.1803 16.8296 31.9482 16.8302ZM39.2222 20.0893C38.2389 20.0893 37.4444 20.8919 37.4444 21.8823V28.886C37.4444 29.8731 38.2421 30.679 39.2222 30.679C40.2055 30.679 41 29.8763 41 28.886V21.879C41.0032 20.8887 40.2088 20.0893 39.2222 20.0893ZM17.7778 20.0893C16.7945 20.0893 16 20.8919 16 21.8823V28.886C16 29.8731 16.7977 30.679 17.7778 30.679C18.7611 30.679 19.5556 29.8763 19.5556 28.886V21.879C19.5556 20.8887 18.7579 20.0893 17.7778 20.0893Z" fill="white"/>
</svg>
