<svg width="22" height="24" viewBox="0 0 22 24" fill="none" xmlns="http://www.w3.org/2000/svg">
<path fill-rule="evenodd" clip-rule="evenodd" d="M19.8412 4.51464L12.9674 0.544248C12.3498 0.187705 11.6493 0 10.9362 0C10.2231 0 9.52259 0.187705 8.90504 0.544248L2.03116 4.51464C1.41375 4.8711 0.901023 5.38376 0.544488 6.00113C0.187953 6.6185 0.000168212 7.31883 0 8.03175V15.9704C0.000168212 16.6833 0.187953 17.3836 0.544488 18.001C0.901023 18.6184 1.41375 19.131 2.03116 19.4875L8.90504 23.4558C9.52259 23.8123 10.2231 24 10.9362 24C11.6493 24 12.3498 23.8123 12.9674 23.4558L19.8412 19.4875C20.4587 19.131 20.9714 18.6184 21.3279 18.001C21.6845 17.3836 21.8722 16.6833 21.8724 15.9704V8.03175C21.8722 7.31883 21.6845 6.6185 21.3279 6.00113C20.9714 5.38376 20.4587 4.8711 19.8412 4.51464ZM16.1144 6.78486C16.2149 6.88527 16.2713 7.0215 16.2713 7.16361C16.2713 7.30564 16.215 7.44187 16.1146 7.5423C16.0142 7.64281 15.8778 7.69924 15.7358 7.69924V13.591C15.9272 13.591 16.104 13.693 16.1997 13.8588C16.2953 14.0245 16.2953 14.2287 16.1997 14.3945C16.104 14.5602 15.9272 14.6623 15.7358 14.6623H13.3842L15.0955 16.3734C15.1998 16.478 15.2584 16.6198 15.2584 16.7676C15.2584 16.9153 15.1998 17.0571 15.0955 17.1618C14.9949 17.2621 14.8587 17.3183 14.7166 17.3183C14.5746 17.3183 14.4385 17.2621 14.3379 17.1618L13.6217 16.4455H8.20842L7.49226 17.1618C7.39145 17.2616 7.25531 17.3175 7.11352 17.3175C6.97164 17.3175 6.83551 17.2616 6.73469 17.1618C6.63043 17.0571 6.57193 16.9153 6.57193 16.7676C6.57193 16.6198 6.63043 16.478 6.73469 16.3734L8.44619 14.6623H6.09458C5.90321 14.6623 5.72643 14.5602 5.6307 14.3945C5.53506 14.2287 5.53506 14.0245 5.6307 13.8588C5.72642 13.693 5.90321 13.591 6.09458 13.591V7.69924C5.90321 7.69924 5.72643 7.59713 5.6307 7.43143C5.53506 7.26564 5.53506 7.06152 5.6307 6.89581C5.72642 6.73002 5.90321 6.628 6.09458 6.628H15.7357C15.8777 6.628 16.014 6.68445 16.1144 6.78486ZM9.98911 14.6622L9.27767 15.3764H12.5524L11.841 14.6622H9.98911ZM6.45165 13.591H15.3786V7.69923H6.45165V13.591ZM13.9503 8.41348H12.8791C12.7805 8.41348 12.7005 8.33354 12.7005 8.23495C12.7005 8.13635 12.7805 8.05641 12.8791 8.05641H13.9503C14.0489 8.05641 14.1288 8.13635 14.1288 8.23495C14.1288 8.33354 14.0489 8.41348 13.9503 8.41348ZM14.843 8.2346C14.843 8.33327 14.763 8.41314 14.6644 8.41314C14.5658 8.41314 14.4859 8.33327 14.4859 8.2346C14.4859 8.13601 14.5658 8.05606 14.6644 8.05606C14.763 8.05606 14.843 8.13601 14.843 8.2346ZM14.6644 13.223H7.1658C7.06721 13.223 6.98726 13.1431 6.98726 13.0445C6.98726 12.9459 7.06721 12.8659 7.1658 12.8659H7.61215V8.581C7.61215 8.48241 7.69209 8.40247 7.79069 8.40247H8.68338C8.73073 8.40247 8.77616 8.42128 8.80964 8.45475C8.84311 8.48823 8.86192 8.53366 8.86192 8.581V12.8659H9.39754V10.902C9.39754 10.8034 9.47748 10.7235 9.57608 10.7235H10.4688C10.5161 10.7235 10.5616 10.7423 10.595 10.7758C10.6285 10.8092 10.6473 10.8547 10.6473 10.902V12.8659H11.1829V9.4737C11.1829 9.37511 11.2629 9.29516 11.3615 9.29516H12.2542C12.3015 9.29516 12.3469 9.31397 12.3804 9.34745C12.4139 9.38092 12.4327 9.42636 12.4327 9.4737V12.8659H12.9683V11.7947C12.9683 11.6961 13.0483 11.6162 13.1469 11.6162H14.0396C14.0869 11.6162 14.1323 11.635 14.1658 11.6685C14.1993 11.7019 14.2181 11.7474 14.2181 11.7947V12.8659H14.6644C14.763 12.8659 14.843 12.9459 14.843 13.0445C14.843 13.1431 14.763 13.223 14.6644 13.223Z" fill="white"/>
</svg>
