<svg width="22" height="24" viewBox="0 0 22 24" fill="none" xmlns="http://www.w3.org/2000/svg">
<path fill-rule="evenodd" clip-rule="evenodd" d="M19.8412 4.51464L12.9674 0.544248C12.3498 0.187705 11.6493 0 10.9362 0C10.2231 0 9.52259 0.187705 8.90504 0.544248L2.03116 4.51464C1.41375 4.8711 0.901023 5.38377 0.544488 6.00113C0.187953 6.6185 0.000168212 7.31883 0 8.03175V15.9704C0.000168212 16.6833 0.187953 17.3836 0.544488 18.001C0.901023 18.6184 1.41375 19.131 2.03116 19.4875L8.90504 23.4558C9.52259 23.8123 10.2231 24 10.9362 24C11.6493 24 12.3498 23.8123 12.9674 23.4558L19.8412 19.4875C20.4587 19.131 20.9714 18.6184 21.3279 18.001C21.6845 17.3836 21.8722 16.6833 21.8724 15.9704V8.03175C21.8722 7.31883 21.6845 6.6185 21.3279 6.00113C20.9714 5.38377 20.4587 4.8711 19.8412 4.51464ZM16.2493 8.49881C16.2493 8.61636 16.153 8.71262 16.0355 8.71262H14.5923V15.2337H16.0355C16.153 15.2337 16.2493 15.33 16.2493 15.4475V17.1045C16.2493 17.2221 16.153 17.3183 16.0355 17.3183H14.3785C14.2609 17.3183 14.1647 17.2221 14.1647 17.1045V15.6613H7.64358V17.1045C7.64358 17.2221 7.54733 17.3183 7.42978 17.3183H5.77278C5.65522 17.3183 5.55897 17.2221 5.55897 17.1045V15.4475C5.55897 15.33 5.65522 15.2337 5.77278 15.2337H7.21597V8.71262H5.77278C5.65522 8.71262 5.55897 8.61636 5.55897 8.49881V6.84181C5.55897 6.72426 5.65522 6.628 5.77278 6.628H7.42978C7.54733 6.628 7.64358 6.72426 7.64358 6.84181V8.285H14.1647V6.84181C14.1647 6.72426 14.2609 6.628 14.3785 6.628H16.0355C16.153 6.628 16.2493 6.72426 16.2493 6.84181V8.49881ZM7.64358 15.2337H14.1647V8.71262H7.64358V15.2337ZM10.8121 10.9105L10.5706 10.8293C10.5065 10.8079 10.438 10.7973 10.3696 10.7973C10.2028 10.7973 10.0424 10.8614 9.91629 10.9833C9.74309 11.1565 9.68327 11.4087 9.76022 11.6418L9.84144 11.8813C9.33897 11.8621 8.93704 11.4515 8.93704 10.947C8.93704 10.4274 9.35829 10.0063 9.87776 10.0063C10.3824 10.0061 10.7929 10.4082 10.8121 10.9105ZM10.4358 11.2355L13.4569 12.2426C13.5424 12.2724 13.6023 12.3515 13.6044 12.4435C13.6044 12.5333 13.5489 12.6145 13.4635 12.6467L12.0844 13.1556L11.5756 14.5325C11.5456 14.6158 11.4644 14.6714 11.3767 14.6714H11.3724C11.2826 14.6692 11.2013 14.6115 11.1735 14.526L10.1665 11.5071C10.1408 11.43 10.16 11.3445 10.2178 11.2868C10.2755 11.2312 10.3589 11.2098 10.4358 11.2355Z" fill="white"/>
</svg>
