<svg width="66" height="72" viewBox="0 0 66 72" fill="none" xmlns="http://www.w3.org/2000/svg">
<path fill-rule="evenodd" clip-rule="evenodd" d="M65.7114 22.5727C65.5078 20.9557 64.9813 19.3961 64.1634 17.9864C63.3454 16.5767 62.2526 15.3458 60.9496 14.3665C60.5536 14.0679 60.1403 13.7928 59.7119 13.5427L56.1091 11.4695L51.0398 8.53704L39.3877 1.81286L39.0921 1.63943C37.3583 0.637748 35.405 0.0773891 33.404 0.00766C32.3668 -0.0294839 31.3293 0.0685723 30.3175 0.299327C29.1192 0.569595 27.9684 1.0187 26.9039 1.63155L24.6294 2.95196L6.29192 13.5427C5.27133 14.1349 4.34197 14.8717 3.53262 15.7303C2.42003 16.9004 1.55169 18.2806 0.978312 19.79C0.802872 20.248 0.656689 20.7167 0.540724 21.1932C0.308505 22.144 0.190711 23.1192 0.189941 24.0981V47.9086C0.190326 48.7873 0.285408 49.6635 0.473743 50.5218C0.576909 50.9931 0.708561 51.4578 0.867928 51.9132C1.83116 54.6745 3.75281 56.9988 6.28403 58.4639L26.9039 70.3672C28.7567 71.4369 30.8585 72 32.998 72C35.1375 72 37.2392 71.4369 39.0921 70.3672L39.4193 70.1741L43.1206 68.0418L44.2283 67.3993L51.091 63.4578L56.3179 60.4386L59.7159 58.4679C60.2088 58.1812 60.6816 57.8611 61.131 57.5101C62.8155 56.1932 64.1234 54.4558 64.923 52.4729C65.3619 51.3918 65.6407 50.2526 65.7508 49.0911C65.7907 48.6982 65.8104 48.3035 65.8099 47.9086V24.0981C65.8091 23.588 65.7762 23.0786 65.7114 22.5727ZM20.434 21.9683L35.9694 19.8842L36.8878 24.9268H49.3876L38.8116 33.5244L36.8262 29.6075L24.4126 35.2294L20.434 21.9683ZM27.6283 51.2662L18.549 20.6849L16.227 21.3742L25.3063 51.9554L27.6283 51.2662Z" fill="#0DB3B3"/>
</svg>
