<svg width="52" height="53" viewBox="0 0 52 53" fill="none" xmlns="http://www.w3.org/2000/svg">
<g clip-path="url(#clip0_529_1986)">
<path d="M52 26.7016C52 12.3422 40.3594 0.701591 26 0.701591C11.6406 0.701591 0 12.3422 0 26.7016C0 39.6789 9.50782 50.4352 21.9375 52.3857V34.2172H15.3359V26.7016H21.9375V20.9735C21.9375 14.4572 25.8191 10.8578 31.7581 10.8578C34.6027 10.8578 37.5781 11.3657 37.5781 11.3657V17.7641H34.2996C31.0697 17.7641 30.0625 19.7683 30.0625 21.8244V26.7016H37.2734L36.1207 34.2172H30.0625V52.3857C42.4922 50.4352 52 39.6789 52 26.7016Z" fill="#1877F2"/>
<path d="M36.1207 34.2173L37.2734 26.7017H30.0625V21.8245C30.0625 19.7683 31.0697 17.7642 34.2996 17.7642H37.5781V11.3657C37.5781 11.3657 34.6027 10.8579 31.7581 10.8579C25.8191 10.8579 21.9375 14.4573 21.9375 20.9735V26.7017H15.3359V34.2173H21.9375V52.3858C23.2612 52.5935 24.6179 52.7017 26 52.7017C27.3821 52.7017 28.7388 52.5935 30.0625 52.3858V34.2173H36.1207Z" fill="white"/>
</g>
<defs>
<clipPath id="clip0_529_1986">
<rect width="52" height="52" fill="white" transform="translate(0 0.70166)"/>
</clipPath>
</defs>
</svg>
