<svg width="50" height="50" viewBox="0 0 50 50" fill="none" xmlns="http://www.w3.org/2000/svg">
<g clip-path="url(#clip0_2_57)">
<path d="M50 25C50 11.1929 38.8071 -1.32935e-05 25 -1.32935e-05C11.1929 -1.32935e-05 0 11.1929 0 25C0 37.4782 9.14214 47.8208 21.0938 49.6963V32.2266H14.7461V25H21.0938V19.4922C21.0938 13.2266 24.8261 9.76561 30.5366 9.76561C33.2718 9.76561 36.1328 10.2539 36.1328 10.2539V16.4062H32.9804C29.8748 16.4062 28.9062 18.3333 28.9062 20.3104V25H35.8398L34.7314 32.2266H28.9062V49.6963C40.8579 47.8208 50 37.4782 50 25Z" fill="#1877F2"/>
<path d="M34.7314 32.2266L35.8398 25H28.9062V20.3104C28.9062 18.3333 29.8747 16.4062 32.9804 16.4062H36.1328V10.2539C36.1328 10.2539 33.2718 9.76562 30.5366 9.76562C24.8261 9.76562 21.0937 13.2266 21.0937 19.4922V25H14.7461V32.2266H21.0937V49.6963C22.3665 49.896 23.6711 50 25 50C26.3289 50 27.6334 49.896 28.9062 49.6963V32.2266H34.7314Z" fill="white"/>
</g>
<defs>
<clipPath id="clip0_2_57">
<rect width="50" height="50" fill="white"/>
</clipPath>
</defs>
</svg>
