<svg width="22" height="24" viewBox="0 0 22 24" fill="none" xmlns="http://www.w3.org/2000/svg">
<path fill-rule="evenodd" clip-rule="evenodd" d="M19.8412 4.51464L12.9674 0.544248C12.3498 0.187705 11.6493 0 10.9362 0C10.2231 0 9.52259 0.187705 8.90504 0.544248L2.03116 4.51464C1.41375 4.8711 0.901023 5.38376 0.544488 6.00113C0.187953 6.6185 0.000168212 7.31883 0 8.03175V15.9704C0.000168212 16.6833 0.187953 17.3836 0.544488 18.001C0.901023 18.6184 1.41375 19.131 2.03116 19.4875L8.90504 23.4558C9.52259 23.8123 10.2231 24 10.9362 24C11.6493 24 12.3498 23.8123 12.9674 23.4558L19.8412 19.4875C20.4587 19.131 20.9714 18.6184 21.3279 18.001C21.6845 17.3836 21.8722 16.6833 21.8724 15.9704V8.03175C21.8722 7.31883 21.6845 6.6185 21.3279 6.00113C20.9714 5.38376 20.4587 4.8711 19.8412 4.51464ZM8.99166 11.5828L9.16089 10.1138C8.57561 10.0494 6.19351 9.8897 4.87341 11.3408L4.79897 12.3962C5.13864 12.1814 5.73625 11.8566 6.42988 11.7212C7.72349 11.4509 8.64406 11.5327 8.99166 11.5828ZM6.48511 11.9948C5.69578 12.1489 5.02101 12.5761 4.77418 12.7473L4.75525 13.0146C4.80764 12.9694 4.86489 12.9262 4.92942 12.8862C6.33117 12.0155 8.85685 11.5618 11.3887 13.1201C11.434 13.1178 11.4893 13.1056 11.54 13.0674C11.6537 12.9818 11.7158 12.7891 11.7194 12.5103C11.7296 11.7525 11.7908 10.7156 11.8105 10.3961L9.9083 9.55971C9.69815 9.53646 7.91334 9.35237 6.79113 9.63872C6.72987 9.65432 6.67019 9.67104 6.61322 9.68962C6.49574 9.72792 6.38806 9.77237 6.29373 9.82429C5.86319 10.0613 5.53997 10.3463 5.30976 10.5973C6.95035 9.48929 9.22679 9.83746 9.33736 9.85521L9.46905 9.87641L9.23426 11.9141L9.08371 11.8815C9.07343 11.8792 8.05522 11.6665 6.48511 11.9948ZM5.07667 13.1234C4.87 13.2517 4.75205 13.4028 4.71525 13.5832L4.70378 13.7446C4.71293 13.9233 4.78708 14.0992 4.87039 14.2431C4.90495 14.0902 4.97312 13.9132 5.10434 13.7361C5.45624 13.2611 6.11298 12.9711 7.05605 12.8743C8.4922 12.7266 9.74533 12.8455 10.5098 12.9621C7.64969 11.6247 5.35021 12.9534 5.07667 13.1234ZM7.80947 16.3382L8.03428 14.9896C7.6594 15.0117 7.31607 15.0526 7.03367 15.1191C5.57227 15.4628 5.27782 15.8789 5.21907 16.0418C5.18013 16.1499 5.20133 16.2556 5.28398 16.3648C5.64736 16.8455 6.0523 17.3148 6.65039 17.3148C6.7406 17.3148 6.82505 17.3159 6.90399 17.3169L6.90815 17.3169C7.4487 17.3244 7.58038 17.3074 7.63034 17.1264C7.72357 16.7883 7.80704 16.3509 7.80947 16.3382ZM6.96981 14.8475C8.58028 14.4685 11.9606 14.8768 12.2703 14.9154C12.7084 14.8464 12.7935 13.8803 12.8298 13.4652C12.8456 13.2857 12.8545 13.1872 12.887 13.13L13.0526 10.7999L13.2213 10.8532C13.2309 10.8563 14.18 11.1565 14.4658 11.2399C14.535 11.2601 14.5707 11.2543 14.5811 11.2479C14.5869 11.2441 14.5902 11.2322 14.5908 11.2283L14.6016 10.1115C14.4785 10.0416 14.0409 9.82299 12.4955 9.17699C9.72695 8.01958 7.51289 8.87309 7.13409 9.03774C7.08814 9.11208 7.02818 9.21079 6.96729 9.31549C8.19917 9.08098 9.87378 9.27486 9.96157 9.28523L10.0012 9.29606L12.1014 10.2196L12.095 10.317C12.0941 10.3299 12.0103 11.6199 11.9984 12.5142C11.9933 12.8912 11.894 13.1535 11.703 13.2941C11.5593 13.3999 11.4035 13.4056 11.3091 13.3961L11.3082 13.3975C11.3073 13.3969 11.3065 13.3964 11.3056 13.3959L11.305 13.3956C11.2575 13.3904 11.2252 13.3819 11.2217 13.3809C11.2083 13.3775 9.38763 12.9152 7.08459 13.1517C6.22267 13.2402 5.63187 13.4927 5.32845 13.9021C5.05766 14.2676 5.12265 14.627 5.12382 14.6334L5.12626 14.6535L5.17389 15.6279C5.49103 15.3181 6.10024 15.0521 6.96981 14.8475ZM13.1653 13.1459C13.3395 13.2928 14.0166 13.7732 14.8139 14.1549C15.486 14.4767 16.5777 13.8297 16.8667 13.6444L16.8262 13.3893C16.4864 13.5119 15.6789 13.7757 15.0012 13.7821L14.9914 13.7822C14.3366 13.7822 13.5734 13.1584 13.1898 12.8012L13.1653 13.1459ZM14.9985 13.5033C15.6613 13.4969 16.4931 13.2143 16.7816 13.1086L16.729 12.7779L16.4133 12.7933L15.7174 11.2255L16.4636 11.1985C16.4038 10.9868 16.2508 10.4912 15.8613 9.36809C15.2254 7.53401 13.4274 6.94545 12.6839 6.77762C9.66929 6.09697 7.94891 7.91869 7.40519 8.63389C8.25465 8.34737 10.2116 7.91965 12.6029 8.91931C14.8695 9.86695 14.8738 9.92859 14.8809 10.0307L14.8801 10.1206L14.8688 11.2419C14.865 11.3142 14.8297 11.4133 14.7424 11.4751C14.6521 11.5388 14.5324 11.55 14.3875 11.5076C14.1702 11.4441 13.5942 11.2632 13.3055 11.1723L13.2156 12.438C13.4592 12.6823 14.327 13.5033 14.9909 13.5033L14.9985 13.5033ZM16.5906 12.5055L17.3013 12.4708L16.9454 11.4601L16.1396 11.4893L16.5906 12.5055Z" fill="white"/>
</svg>
