<svg width="52" height="53" viewBox="0 0 52 53" fill="none" xmlns="http://www.w3.org/2000/svg">
<circle cx="26" cy="26.7017" r="26" fill="white"/>
<path d="M45.611 22.7847H44V22.7017H26V30.7017H37.303C35.654 35.3587 31.223 38.7017 26 38.7017C19.373 38.7017 14 33.3287 14 26.7017C14 20.0747 19.373 14.7017 26 14.7017C29.059 14.7017 31.842 15.8557 33.961 17.7407L39.618 12.0837C36.046 8.75466 31.268 6.70166 26 6.70166C14.955 6.70166 6 15.6567 6 26.7017C6 37.7467 14.955 46.7017 26 46.7017C37.045 46.7017 46 37.7467 46 26.7017C46 25.3607 45.862 24.0517 45.611 22.7847Z" fill="#FEC039"/>
<path d="M8.306 17.3927L14.877 22.2117C16.655 17.8097 20.961 14.7017 26 14.7017C29.059 14.7017 31.842 15.8557 33.961 17.7407L39.618 12.0837C36.046 8.75466 31.268 6.70166 26 6.70166C18.318 6.70166 11.656 11.0387 8.306 17.3927Z" fill="#FF3D00"/>
<path d="M26 46.7016C31.166 46.7016 35.86 44.7246 39.409 41.5096L33.219 36.2716C31.1436 37.85 28.6075 38.7037 26 38.7016C20.798 38.7016 16.381 35.3846 14.717 30.7556L8.19501 35.7806C11.505 42.2576 18.227 46.7016 26 46.7016Z" fill="#4CAF50"/>
<path d="M45.611 22.7847H44V22.7017H26V30.7017H37.303C36.5142 32.9181 35.0934 34.8548 33.216 36.2727L33.219 36.2707L39.409 41.5087C38.971 41.9067 46 36.7017 46 26.7017C46 25.3607 45.862 24.0517 45.611 22.7847Z" fill="#1976D2"/>
</svg>
