<svg width="238" height="19" viewBox="0 0 238 19" fill="none" xmlns="http://www.w3.org/2000/svg">
<g filter="url(#filter0_di_395_186)">
<path d="M3.43895 14.2796H6.30057V1.00692H4.32379L0.539673 2.1365L1.14212 4.50864L3.43895 3.94384V14.2796Z" fill="#43C9ED"/>
<path d="M13.7158 14.5055C17.4623 14.5055 19.4767 11.5874 19.4767 7.31378V7.27613C19.4767 4.67807 18.8555 3.24726 17.9141 2.30594C16.9163 1.30814 15.8809 0.875131 14.1112 0.875131C11.1366 0.875131 9.08453 2.83308 9.08453 5.48761V5.52527C9.08453 8.19862 10.9295 9.78005 13.7911 9.78005C14.9396 9.78005 15.8244 9.42234 16.4645 8.87638C16.2762 10.6461 15.4102 11.8698 13.7911 11.8698C12.6804 11.8698 11.8708 11.5121 10.9107 10.7402L9.38575 12.9429C10.4965 13.8654 11.7955 14.5055 13.7158 14.5055ZM14.2618 7.37026C12.831 7.37026 11.965 6.56072 11.965 5.39348V5.35583C11.965 4.18859 12.7745 3.36022 14.2053 3.36022C15.655 3.36022 16.521 4.20741 16.521 5.37465V5.41231C16.521 6.54189 15.6926 7.37026 14.2618 7.37026Z" fill="#43C9ED"/>
<path d="M23.6206 14.3925C24.2607 14.3925 24.7251 14.2419 25.1267 14.0034V12.4722C24.8506 12.6228 24.5368 12.7107 24.1854 12.7107C23.7587 12.7107 23.5704 12.4973 23.5704 12.058V9.18387H25.1518V7.55225H23.5704V5.83276H21.6627V7.55225H20.8594V9.18387H21.6627V12.3718C21.6627 13.9281 22.4534 14.3925 23.6206 14.3925Z" fill="#43C9ED"/>
<path d="M26.558 14.2796H28.4658V10.5268C28.4658 9.62316 28.9302 9.15877 29.6581 9.15877C30.3861 9.15877 30.8128 9.62316 30.8128 10.5268V14.2796H32.7206V9.92438C32.7206 8.38061 31.8796 7.42674 30.4363 7.42674C29.4699 7.42674 28.9051 7.94133 28.4658 8.50612V5.11736H26.558V14.2796Z" fill="#43C9ED"/>
<path d="M40.4863 9.8177H46.2848V7.06904H40.4863V9.8177Z" fill="#43C9ED"/>
<path d="M53.7967 14.2796H63.5488V11.7756H57.8068L59.953 10.1189C62.2875 8.31158 63.417 7.21965 63.417 5.01695V4.9793C63.417 2.51303 61.6097 0.912784 58.8799 0.912784C56.5266 0.912784 55.2652 1.87293 53.9662 3.64262L55.9994 5.28052C56.9784 4.07563 57.675 3.51083 58.6916 3.51083C59.7271 3.51083 60.4613 4.11328 60.4613 5.22404C60.4613 6.31598 59.8212 7.03138 58.1833 8.38689L53.7967 11.9827V14.2796Z" fill="#43C9ED"/>
<path d="M71.4568 14.5055C74.9774 14.5055 77.3307 11.5121 77.3307 7.69031V7.65266C77.3307 3.83089 74.9774 0.875131 71.4945 0.875131C67.9928 0.875131 65.6206 3.86854 65.6206 7.69031V7.72796C65.6206 11.5497 67.9363 14.5055 71.4568 14.5055ZM71.4945 11.8886C69.7436 11.8886 68.5952 10.1001 68.5952 7.69031V7.65266C68.5952 5.24287 69.7248 3.49201 71.4568 3.49201C73.1889 3.49201 74.3561 5.29935 74.3561 7.69031V7.72796C74.3561 10.1189 73.2453 11.8886 71.4945 11.8886Z" fill="#43C9ED"/>
<path d="M81.4813 14.3925C82.1214 14.3925 82.5858 14.2419 82.9874 14.0034V12.4722C82.7113 12.6228 82.3976 12.7107 82.0461 12.7107C81.6194 12.7107 81.4311 12.4973 81.4311 12.058V9.18387H83.0125V7.55225H81.4311V5.83276H79.5234V7.55225H78.7201V9.18387H79.5234V12.3718C79.5234 13.9281 80.3141 14.3925 81.4813 14.3925Z" fill="#43C9ED"/>
<path d="M84.4187 14.2796H86.3265V10.5268C86.3265 9.62316 86.7909 9.15877 87.5188 9.15877C88.2468 9.15877 88.6735 9.62316 88.6735 10.5268V14.2796H90.5813V9.92438C90.5813 8.38061 89.7404 7.42674 88.297 7.42674C87.3306 7.42674 86.7658 7.94133 86.3265 8.50612V5.11736H84.4187V14.2796Z" fill="#43C9ED"/>
<path d="M98.9871 14.2796H101.886V9.1776H108.174V6.54189H101.886V3.73675H109.022V1.10105H98.9871V14.2796Z" fill="#43C9ED"/>
<path d="M115.547 14.5055C117.373 14.5055 118.729 13.7901 119.67 12.6228L118.032 11.1732C117.241 11.9074 116.545 12.2087 115.585 12.2087C114.304 12.2087 113.401 11.5309 113.118 10.2319H120.141C120.159 9.96831 120.178 9.70474 120.178 9.47882C120.178 6.6172 118.634 4.00032 115.264 4.00032C112.328 4.00032 110.275 6.37246 110.275 9.2529V9.29056C110.275 12.3781 112.516 14.5055 115.547 14.5055ZM113.081 8.44337C113.307 7.14434 114.078 6.29715 115.264 6.29715C116.469 6.29715 117.222 7.16317 117.392 8.44337H113.081Z" fill="#43C9ED"/>
<path d="M128.316 14.4678C130.707 14.4678 132.91 12.6228 132.91 9.2529V9.21525C132.91 5.84532 130.67 4.00032 128.316 4.00032C126.829 4.00032 125.869 4.6969 125.172 5.63823V0.536255H122.311V14.2796H125.172V12.9617C125.85 13.7713 126.792 14.4678 128.316 14.4678ZM127.582 12.0392C126.246 12.0392 125.135 10.9285 125.135 9.2529V9.21525C125.135 7.5397 126.246 6.42894 127.582 6.42894C128.919 6.42894 130.049 7.5397 130.049 9.21525V9.2529C130.049 10.9473 128.919 12.0392 127.582 12.0392Z" fill="#43C9ED"/>
<path d="M135.015 14.2796H137.877V10.5519C137.877 8.14214 139.044 6.99373 140.945 6.99373H141.096V4.00032C139.402 3.92502 138.46 4.82869 137.877 6.22184V4.18859H135.015V14.2796Z" fill="#43C9ED"/>
<path d="M146.235 14.4678C147.685 14.4678 148.532 13.6959 149.191 12.8488V14.2796H152.052V4.18859H149.191V9.8177C149.191 11.1732 148.494 11.8698 147.402 11.8698C146.31 11.8698 145.67 11.1732 145.67 9.8177V4.18859H142.809V10.7214C142.809 13.037 144.07 14.4678 146.235 14.4678Z" fill="#43C9ED"/>
<path d="M157.475 14.4678C158.868 14.4678 159.829 13.9595 160.525 13.1876V14.2796H163.293V8.42454C163.293 7.06904 162.954 5.95827 162.201 5.20522C161.485 4.48981 160.356 4.07563 158.793 4.07563C157.08 4.07563 155.988 4.39568 154.877 4.88517L155.593 7.06904C156.515 6.73016 157.287 6.52307 158.379 6.52307C159.81 6.52307 160.544 7.18199 160.544 8.36806V8.5375C159.829 8.29276 159.094 8.12332 158.078 8.12332C155.687 8.12332 154.011 9.13995 154.011 11.3426V11.3803C154.011 13.3759 155.574 14.4678 157.475 14.4678ZM158.341 12.4911C157.419 12.4911 156.779 12.0392 156.779 11.2673V11.2297C156.779 10.326 157.532 9.83652 158.755 9.83652C159.452 9.83652 160.092 9.98714 160.582 10.2131V10.7214C160.582 11.7568 159.678 12.4911 158.341 12.4911Z" fill="#43C9ED"/>
<path d="M165.755 14.2796H168.617V10.5519C168.617 8.14214 169.784 6.99373 171.685 6.99373H171.836V4.00032C170.142 3.92502 169.2 4.82869 168.617 6.22184V4.18859H165.755V14.2796Z" fill="#43C9ED"/>
<path d="M176.034 17.3483C177.747 17.3483 178.575 16.5764 179.347 14.5243L183.225 4.18859H180.251L178.048 11.0602L175.751 4.18859H172.72L176.674 14.3172C176.429 14.8255 176.166 14.9761 175.676 14.9761C175.3 14.9761 174.829 14.8067 174.452 14.5808L173.492 16.6517C174.226 17.0847 174.998 17.3483 176.034 17.3483Z" fill="#43C9ED"/>
<path d="M190.199 14.2796H199.951V11.7756H194.209L196.355 10.1189C198.69 8.31158 199.819 7.21965 199.819 5.01695V4.9793C199.819 2.51303 198.012 0.912784 195.282 0.912784C192.929 0.912784 191.668 1.87293 190.368 3.64262L192.402 5.28052C193.381 4.07563 194.077 3.51083 195.094 3.51083C196.129 3.51083 196.864 4.11328 196.864 5.22404C196.864 6.31598 196.224 7.03138 194.586 8.38689L190.199 11.9827V14.2796Z" fill="#43C9ED"/>
<path d="M207.859 14.5055C211.38 14.5055 213.733 11.5121 213.733 7.69031V7.65266C213.733 3.83089 211.38 0.875131 207.897 0.875131C204.395 0.875131 202.023 3.86854 202.023 7.69031V7.72796C202.023 11.5497 204.339 14.5055 207.859 14.5055ZM207.897 11.8886C206.146 11.8886 204.998 10.1001 204.998 7.69031V7.65266C204.998 5.24287 206.127 3.49201 207.859 3.49201C209.591 3.49201 210.758 5.29935 210.758 7.69031V7.72796C210.758 10.1189 209.648 11.8886 207.897 11.8886Z" fill="#43C9ED"/>
<path d="M215.497 14.2796H225.249V11.7756H219.507L221.653 10.1189C223.988 8.31158 225.117 7.21965 225.117 5.01695V4.9793C225.117 2.51303 223.31 0.912784 220.58 0.912784C218.227 0.912784 216.966 1.87293 215.667 3.64262L217.7 5.28052C218.679 4.07563 219.375 3.51083 220.392 3.51083C221.427 3.51083 222.162 4.11328 222.162 5.22404C222.162 6.31598 221.522 7.03138 219.884 8.38689L215.497 11.9827V14.2796Z" fill="#43C9ED"/>
<path d="M227.227 14.2796H236.979V11.7756H231.237L233.383 10.1189C235.718 8.31158 236.847 7.21965 236.847 5.01695V4.9793C236.847 2.51303 235.04 0.912784 232.31 0.912784C229.957 0.912784 228.695 1.87293 227.396 3.64262L229.43 5.28052C230.409 4.07563 231.105 3.51083 232.122 3.51083C233.157 3.51083 233.891 4.11328 233.891 5.22404C233.891 6.31598 233.251 7.03138 231.613 8.38689L227.227 11.9827V14.2796Z" fill="#43C9ED"/>
</g>
<defs>
<filter id="filter0_di_395_186" x="0.439673" y="0.436255" width="237.439" height="17.912" filterUnits="userSpaceOnUse" color-interpolation-filters="sRGB">
<feFlood flood-opacity="0" result="BackgroundImageFix"/>
<feColorMatrix in="SourceAlpha" type="matrix" values="0 0 0 0 0 0 0 0 0 0 0 0 0 0 0 0 0 0 127 0" result="hardAlpha"/>
<feOffset dx="0.4" dy="0.4"/>
<feGaussianBlur stdDeviation="0.25"/>
<feComposite in2="hardAlpha" operator="out"/>
<feColorMatrix type="matrix" values="0 0 0 0 1 0 0 0 0 1 0 0 0 0 1 0 0 0 1 0"/>
<feBlend mode="normal" in2="BackgroundImageFix" result="effect1_dropShadow_395_186"/>
<feBlend mode="normal" in="SourceGraphic" in2="effect1_dropShadow_395_186" result="shape"/>
<feColorMatrix in="SourceAlpha" type="matrix" values="0 0 0 0 0 0 0 0 0 0 0 0 0 0 0 0 0 0 127 0" result="hardAlpha"/>
<feOffset dy="1"/>
<feGaussianBlur stdDeviation="0.5"/>
<feComposite in2="hardAlpha" operator="arithmetic" k2="-1" k3="1"/>
<feColorMatrix type="matrix" values="0 0 0 0 0.14902 0 0 0 0 0.478431 0 0 0 0 0.776471 0 0 0 1 0"/>
<feBlend mode="normal" in2="shape" result="effect2_innerShadow_395_186"/>
</filter>
</defs>
</svg>
