<svg width="40" height="40" viewBox="0 0 40 40" fill="none" xmlns="http://www.w3.org/2000/svg">
    <path d="M19.9946 13.3302C16.3222 13.3302 13.3252 16.3272 13.3252 19.9996C13.3252 23.672 16.3222 26.669 19.9946 26.669C23.667 26.669 26.664 23.672 26.664 19.9996C26.664 16.3272 23.667 13.3302 19.9946 13.3302ZM39.9978 19.9996C39.9978 17.2378 40.0228 14.501 39.8677 11.7442C39.7126 8.5421 38.9821 5.70023 36.6406 3.35869C34.294 1.01215 31.4572 0.286676 28.2551 0.131574C25.4932 -0.0235283 22.7564 0.0014882 19.9996 0.0014882C17.2378 0.0014882 14.501 -0.0235283 11.7442 0.131574C8.5421 0.286676 5.70023 1.01716 3.35869 3.35869C1.01215 5.70524 0.286675 8.5421 0.131574 11.7442C-0.0235283 14.506 0.0014882 17.2428 0.0014882 19.9996C0.0014882 22.7564 -0.0235283 25.4982 0.131574 28.2551C0.286675 31.4572 1.01716 34.299 3.35869 36.6406C5.70524 38.9871 8.5421 39.7126 11.7442 39.8677C14.506 40.0228 17.2428 39.9978 19.9996 39.9978C22.7614 39.9978 25.4982 40.0228 28.2551 39.8677C31.4572 39.7126 34.299 38.9821 36.6406 36.6406C38.9871 34.294 39.7126 31.4572 39.8677 28.2551C40.0278 25.4982 39.9978 22.7614 39.9978 19.9996ZM19.9946 30.2614C14.3159 30.2614 9.73288 25.6784 9.73288 19.9996C9.73288 14.3209 14.3159 9.73789 19.9946 9.73789C25.6734 9.73789 30.2564 14.3209 30.2564 19.9996C30.2564 25.6784 25.6734 30.2614 19.9946 30.2614ZM30.6766 11.7142C29.3508 11.7142 28.2801 10.6435 28.2801 9.31761C28.2801 7.99174 29.3508 6.92103 30.6766 6.92103C32.0025 6.92103 33.0732 7.99174 33.0732 9.31761C33.0736 9.63244 33.0119 9.94426 32.8916 10.2352C32.7713 10.5262 32.5948 10.7905 32.3722 11.0131C32.1495 11.2357 31.8852 11.4123 31.5942 11.5326C31.3033 11.6529 30.9915 11.7146 30.6766 11.7142Z" fill="white" />
</svg>