<svg width="40" height="40" viewBox="0 0 40 40" fill="none" xmlns="http://www.w3.org/2000/svg">
<path fill-rule="evenodd" clip-rule="evenodd" d="M0.469971 3.73326C0.469971 2.86778 0.813781 2.03775 1.42577 1.42577C2.03775 0.813784 2.86778 0.469975 3.73326 0.469975H36.2631C36.692 0.469275 37.1169 0.553178 37.5133 0.716882C37.9097 0.880585 38.27 1.12087 38.5734 1.42399C38.8769 1.72711 39.1176 2.0871 39.2817 2.48336C39.4458 2.87962 39.5302 3.30435 39.53 3.73326V36.2631C39.5304 36.6921 39.4463 37.117 39.2824 37.5134C39.1185 37.9099 38.8781 38.2701 38.5748 38.5736C38.2715 38.877 37.9114 39.1176 37.5151 39.2817C37.1187 39.4459 36.6939 39.5302 36.2649 39.53H3.73326C3.30457 39.53 2.88008 39.4455 2.48404 39.2814C2.08801 39.1173 1.72818 38.8768 1.42514 38.5736C1.12209 38.2703 0.881755 37.9104 0.717864 37.5143C0.553973 37.1181 0.469738 36.6936 0.469971 36.2649V3.73326ZM15.9306 15.3625H21.2197V18.0186C21.9832 16.4917 23.9362 15.1175 26.871 15.1175C32.4974 15.1175 33.8308 18.1588 33.8308 23.7391V34.0758H28.1369V25.0103C28.1369 21.8322 27.3734 20.039 25.4346 20.039C22.7448 20.039 21.6263 21.9725 21.6263 25.0103V34.0758H15.9306V15.3625ZM6.16563 33.8325H11.8613V15.1175H6.16563V33.8308V33.8325ZM12.6762 9.01346C12.687 9.50113 12.6002 9.98603 12.421 10.4397C12.2418 10.8934 11.9738 11.3067 11.6327 11.6554C11.2916 12.0041 10.8843 12.2811 10.4346 12.4703C9.98501 12.6594 9.50213 12.7569 9.01435 12.7569C8.52656 12.7569 8.04368 12.6594 7.59406 12.4703C7.14444 12.2811 6.73713 12.0041 6.39603 11.6554C6.05493 11.3067 5.78691 10.8934 5.60771 10.4397C5.42851 9.98603 5.34173 9.50113 5.35247 9.01346C5.37355 8.05623 5.76861 7.14531 6.45305 6.47578C7.13749 5.80625 8.05689 5.43134 9.01435 5.43134C9.97181 5.43134 10.8912 5.80625 11.5756 6.47578C12.2601 7.14531 12.6551 8.05623 12.6762 9.01346Z" fill="#00A0DC"/>
</svg>
