<svg width="110" height="120" viewBox="0 0 110 120" fill="none" xmlns="http://www.w3.org/2000/svg">
<g clip-path="url(#clip0_395_177)">
<path d="M99.7505 22.5629L65.3744 2.72013C62.2854 0.935012 58.7806 -0.00485229 55.2128 -0.00485229C51.6451 -0.00485229 48.1403 0.935012 45.0512 2.72013L10.6964 22.5629C7.60802 24.3456 5.04348 26.9099 3.26063 29.9981C1.47778 33.0864 0.539462 36.5896 0.54004 40.1554V79.8375C0.539008 83.403 1.47716 86.9059 3.26009 89.9936C5.04302 93.0814 7.60782 95.645 10.6964 97.4265L45.0512 117.283C48.1386 119.066 51.6408 120.004 55.2058 120.004C58.7708 120.004 62.2729 119.066 65.3603 117.283L99.7364 97.4406C102.829 95.6592 105.398 93.094 107.183 90.0035C108.969 86.9131 109.908 83.4067 109.907 79.8375V40.1554C109.907 36.5897 108.968 33.0868 107.185 29.9987C105.402 26.9106 102.838 24.3461 99.7505 22.5629ZM55.2393 89.7713C51.5533 71.9471 41.9286 55.9009 27.9391 44.2568C36.691 47.4075 45.9235 49.014 55.2252 49.0047C64.522 49.0114 73.7495 47.4049 82.4971 44.2568C68.5169 55.9042 58.9021 71.9503 55.2252 89.7713H55.2393Z" fill="#43C9ED"/>
</g>
<defs>
<clipPath id="clip0_395_177">
<rect width="109.367" height="120" fill="white" transform="translate(0.540039)"/>
</clipPath>
</defs>
</svg>
