<svg width="36" height="36" viewBox="0 0 36 36" fill="none" xmlns="http://www.w3.org/2000/svg">
<path d="M13.5 4.5C16.6071 4.5 19.1259 7.01881 19.1259 10.1259C19.1259 13.233 16.6071 15.7518 13.5 15.7518C10.3929 15.7518 7.87409 13.233 7.87409 10.1259C7.87409 7.01881 10.3929 4.5 13.5 4.5ZM21.4535 14.3133C20.7067 13.51 20.25 12.4333 20.25 11.25C20.25 8.76472 22.2647 6.75 24.75 6.75C27.2353 6.75 29.25 8.76472 29.25 11.25C29.25 12.1854 28.9646 13.0541 28.4762 13.7738C27.6375 13.5944 26.7673 13.5 25.875 13.5C24.3172 13.5 22.8266 13.7878 21.4535 14.3133ZM13.9657 29.2496C13.8566 29.2511 13.7465 29.2518 13.6354 29.2518C7.75242 29.2518 4.5 27.218 4.5 23.1178V21.375C4.5 19.511 6.01104 18 7.875 18H16.3286C14.5616 20.1396 13.5 22.8833 13.5 25.875C13.5 27.0449 13.6623 28.1769 13.9657 29.2496ZM25.875 36C31.4669 36 36 31.4669 36 25.875C36 20.2831 31.4669 15.75 25.875 15.75C20.2831 15.75 15.75 20.2831 15.75 25.875C15.75 31.4669 20.2831 36 25.875 36ZM31.1705 23.2955L24.4205 30.0455C23.9812 30.4848 23.2688 30.4848 22.8295 30.0455L20.5795 27.7955C20.1402 27.3562 20.1402 26.6438 20.5795 26.2045C21.0188 25.7652 21.7312 25.7652 22.1705 26.2045L23.625 27.659L29.5795 21.7045C30.0188 21.2652 30.7312 21.2652 31.1705 21.7045C31.6098 22.1438 31.6098 22.8562 31.1705 23.2955Z" fill="white"/>
</svg>
