<svg width="22" height="24" viewBox="0 0 22 24" fill="none" xmlns="http://www.w3.org/2000/svg">
<path fill-rule="evenodd" clip-rule="evenodd" d="M12.9673 0.544251L19.8413 4.51464C20.4587 4.87109 20.9714 5.38376 21.3279 6.00113C21.6844 6.6185 21.8723 7.31883 21.8724 8.03174V15.9704C21.8723 16.6833 21.6844 17.3836 21.3279 18.001C20.9714 18.6184 20.4587 19.131 19.8413 19.4875L12.9673 23.4557C12.3498 23.8123 11.6493 24 10.9362 24C10.2231 24 9.52258 23.8123 8.90502 23.4557L2.03116 19.4875C1.41375 19.131 0.901004 18.6184 0.544486 18.001C0.187968 17.3836 0.000156597 16.6833 0 15.9704V8.03174C0.000156597 7.31883 0.187968 6.6185 0.544486 6.00113C0.901004 5.38376 1.41375 4.87109 2.03116 4.51464L8.90502 0.544251C9.52258 0.187707 10.2231 0 10.9362 0C11.6493 0 12.3498 0.187707 12.9673 0.544251ZM9.9941 14.8868L9.71139 15.3762L9.9941 15.8658H10.5591L10.8419 15.3762L10.5591 14.8868H9.9941ZM9.20354 15.3765C9.20354 14.7838 9.68414 14.3032 10.2768 14.3032C10.8696 14.3032 11.35 14.7837 11.3501 15.3765C11.3501 15.9691 10.8695 16.4497 10.2768 16.4497C9.68414 16.4497 9.20354 15.9691 9.20354 15.3765ZM9.92337 15.9885H10.6301L10.9836 15.3765L10.6301 14.7646H9.92337L9.56998 15.3765L9.92337 15.9885ZM7.14132 9.42846C6.62169 9.42846 6.20039 9.84974 6.20039 10.3694C6.20039 10.8891 6.62169 11.3104 7.14132 11.3104C7.66102 11.3104 8.08231 10.8891 8.08231 10.3694C8.08221 9.84974 7.66102 9.42846 7.14132 9.42846ZM7.53313 10.9287L6.85287 10.9885L6.46096 10.4292L6.74947 9.81017L7.42972 9.75034L7.82168 10.3097L7.53313 10.9287ZM6.83074 9.92611L7.37022 9.87875L7.6808 10.3223L7.45217 10.8131L6.91269 10.8604L6.60211 10.417L6.83074 9.92611ZM8.04149 10.9329C7.85321 11.2327 7.5206 11.4329 7.14122 11.4329C7.05901 11.4329 6.97925 11.4226 6.90225 11.4048L9.08338 15.4256C9.08312 15.4191 9.0827 15.4125 9.08223 15.406C9.08156 15.3961 9.08088 15.3863 9.08088 15.3764C9.08088 14.7171 9.61732 14.1806 10.2767 14.1806C10.4533 14.1806 10.6204 14.22 10.7713 14.289L8.04149 10.9329ZM10.6156 7.37281C10.6322 7.67999 10.8175 7.94247 11.0807 8.06932L8.1829 10.5848C8.19726 10.5152 8.20482 10.4433 8.20482 10.3695C8.20482 9.80788 7.76682 9.34769 7.21466 9.30974L10.6156 7.37281ZM11.1929 7.05785L11.0805 7.404L11.3238 7.67451L11.6797 7.59895L11.7923 7.25263L11.549 6.98212L11.1929 7.05785ZM10.7359 7.32835C10.7359 6.9416 11.0495 6.628 11.4363 6.628C11.8231 6.628 12.1367 6.9416 12.1367 7.32835C12.1367 7.71512 11.8231 8.0287 11.4363 8.0287C11.0495 8.0287 10.7359 7.7152 10.7359 7.32835ZM11.2909 7.77546L11.7507 7.67776L11.8962 7.23074L11.5817 6.88124L11.1217 6.97893L10.9764 7.42596L11.2909 7.77546ZM14.4554 9.1464C14.2572 8.98281 13.9526 9.02453 13.7751 9.23957C13.5976 9.45461 13.6142 9.76152 13.8124 9.92513L14.4554 9.1464ZM15.2853 9.52638L14.6385 9.14509L13.8485 10.1017L14.3452 10.6647L14.858 10.9023L15.1221 10.6801L15.1657 10.5835L15.1057 10.518L14.9996 10.5471L14.8642 10.6558L14.5332 10.499L14.283 10.2152L14.832 9.55031L15.158 9.74244L15.3745 10.0378L15.2935 10.1913L15.2851 10.3009L15.3607 10.3475L15.4472 10.2864L15.6155 9.98503L15.2853 9.52638ZM13.6805 9.1615C13.747 9.08098 13.8292 9.02295 13.917 8.98312L12.259 7.33643C12.2552 7.71602 11.9932 8.03422 11.6403 8.12465L13.5498 9.42712C13.5728 9.33165 13.6153 9.24037 13.6805 9.1615ZM11.4134 15.746C12.1127 16.0923 12.6315 16.7466 12.7915 17.5321H7.76207C7.92222 16.7466 8.44092 16.0924 9.14028 15.746C9.29635 16.2248 9.74652 16.5722 10.2769 16.5722C10.8072 16.5722 11.2574 16.2249 11.4134 15.746Z" fill="white"/>
</svg>
