<svg width="22" height="24" viewBox="0 0 22 24" fill="none" xmlns="http://www.w3.org/2000/svg">
<path fill-rule="evenodd" clip-rule="evenodd" d="M19.8412 4.51464L12.9674 0.544248C12.3498 0.187705 11.6493 0 10.9362 0C10.2231 0 9.52259 0.187705 8.90504 0.544248L2.03116 4.51464C1.41375 4.8711 0.901023 5.38376 0.544488 6.00113C0.187953 6.6185 0.000168212 7.31883 0 8.03175V15.9704C0.000168212 16.6833 0.187953 17.3836 0.544488 18.001C0.901023 18.6184 1.41375 19.131 2.03116 19.4875L8.90504 23.4558C9.52259 23.8123 10.2231 24 10.9362 24C11.6493 24 12.3498 23.8123 12.9674 23.4558L19.8412 19.4875C20.4587 19.131 20.9714 18.6184 21.3279 18.001C21.6845 17.3836 21.8722 16.6833 21.8724 15.9704V8.03175C21.8722 7.31883 21.6845 6.6185 21.3279 6.00113C20.9714 5.38376 20.4587 4.8711 19.8412 4.51464ZM8.31591 10.802H6.16428C6.02795 10.802 5.9022 10.7454 5.8119 10.6568C5.72336 10.5665 5.66667 10.4407 5.66667 10.3044C5.66667 10.0299 5.88976 9.80678 6.16428 9.80678H8.31591V10.802ZM13.9685 10.802H16.1201C16.3947 10.802 16.6178 10.5789 16.6178 10.3044C16.6178 10.0299 16.3947 9.80676 16.1201 9.80676H13.9685V10.802ZM11.1424 6.6632L8.9503 8.5639C8.77155 8.71905 8.50061 8.69998 8.34555 8.5209C8.1904 8.34197 8.20964 8.07109 8.38864 7.91594L10.8615 5.77156C11.0226 5.6317 11.2622 5.6317 11.4234 5.77156L13.8963 7.91586C14.0753 8.07101 14.0946 8.3419 13.9394 8.52081C13.7841 8.70006 13.5132 8.71888 13.3344 8.5639L11.1424 6.6632ZM11.4103 10.6713C11.4686 10.7489 11.5796 10.7655 11.6583 10.7064C11.7365 10.6476 11.7522 10.5365 11.6934 10.4584L11.3193 9.96081V9.3351C11.3193 9.23733 11.24 9.15804 11.1422 9.15804C11.0445 9.15804 10.9652 9.23733 10.9652 9.3351V9.98079C10.9652 10.0009 10.983 10.1028 11.012 10.1415L11.4103 10.6713ZM16.0812 16.646H16.426C16.5238 16.646 16.6031 16.7252 16.603 16.8229C16.603 16.9207 16.5238 17 16.426 17H5.85855C5.76078 17 5.68148 16.9207 5.68148 16.8229C5.68148 16.7252 5.76078 16.6459 5.85855 16.6459H6.20327V11.1563L8.31598 11.1563V16.646H8.67012V9.02234C8.85787 9.02234 9.04022 8.95506 9.18193 8.83108L11.1423 7.13104L13.1026 8.83108C13.2443 8.95506 13.4267 9.02234 13.6144 9.02234V16.646H13.9685V11.1563H16.0812V16.646ZM14.777 11.9301C14.6513 11.9301 14.5485 12.0329 14.5485 12.1586V13.23C14.5485 13.3575 14.6513 13.4602 14.777 13.4602H15.2729C15.4004 13.4602 15.5013 13.3575 15.5013 13.23V12.1586C15.5013 12.0329 15.4004 11.9301 15.2729 11.9301H14.777ZM14.777 14.3421C14.6513 14.3421 14.5485 14.4449 14.5485 14.5724V15.6438C14.5485 15.7695 14.6513 15.8722 14.777 15.8722H15.2729C15.4004 15.8722 15.5013 15.7695 15.5013 15.6438V14.5724C15.5013 14.4449 15.4004 14.3421 15.2729 14.3421H14.777ZM7.01169 11.9301C6.88595 11.9301 6.78322 12.0329 6.78322 12.1586V13.23C6.78322 13.3575 6.88595 13.4602 7.01169 13.4602H7.50754C7.63505 13.4602 7.73602 13.3575 7.73602 13.23V12.1586C7.73602 12.0329 7.63505 11.9301 7.50754 11.9301H7.01169ZM7.01169 14.3421C6.88595 14.3421 6.78322 14.4449 6.78322 14.5724V15.6438C6.78322 15.7695 6.88595 15.8722 7.01169 15.8722H7.50754C7.63505 15.8722 7.73602 15.7695 7.73602 15.6438V14.5724C7.73602 14.4449 7.63505 14.3421 7.50754 14.3421H7.01169ZM12.7002 12.1944C12.6024 12.1944 12.5231 12.2737 12.5231 12.3715V12.8575C12.5231 12.9553 12.6024 13.0346 12.7002 13.0346C12.798 13.0346 12.8773 12.9553 12.8773 12.8575V12.3715C12.8773 12.2737 12.798 12.1944 12.7002 12.1944ZM12.4945 10.0194C12.4945 9.27322 11.8883 8.66861 11.1439 8.66861C10.396 8.66861 9.78983 9.27322 9.78983 10.0194C9.78983 10.7671 10.3961 11.3717 11.1439 11.3717C11.8883 11.3717 12.4945 10.7672 12.4945 10.0194ZM12.0983 12.8575V12.3715C12.0983 12.2737 12.019 12.1944 11.9212 12.1944C11.8234 12.1944 11.7441 12.2737 11.7441 12.3715V12.8575C11.7441 12.9553 11.8234 13.0346 11.9212 13.0346C12.019 13.0346 12.0983 12.9553 12.0983 12.8575ZM11.3193 12.8575V12.3715C11.3193 12.2737 11.24 12.1944 11.1422 12.1944C11.0444 12.1944 10.9651 12.2737 10.9651 12.3715V12.8575C10.9651 12.9553 11.0444 13.0346 11.1422 13.0346C11.24 13.0346 11.3193 12.9553 11.3193 12.8575ZM10.5403 12.8575V12.3715C10.5403 12.2737 10.461 12.1944 10.3632 12.1944C10.2654 12.1944 10.1861 12.2737 10.1861 12.3715V12.8575C10.1861 12.9553 10.2654 13.0346 10.3632 13.0346C10.461 13.0346 10.5403 12.9553 10.5403 12.8575ZM9.5842 12.1944C9.48643 12.1944 9.40713 12.2737 9.40713 12.3715V12.8575C9.40713 12.9553 9.48643 13.0346 9.5842 13.0346C9.68197 13.0346 9.76127 12.9553 9.76127 12.8575V12.3715C9.76127 12.2737 9.68197 12.1944 9.5842 12.1944ZM10.0301 14.4023V16.646H12.2542V14.4023C12.2542 14.1812 12.0751 14.002 11.854 14.002H10.4303C10.2092 14.002 10.0301 14.1812 10.0301 14.4023Z" fill="white"/>
</svg>
