<svg version="1.2" baseProfile="tiny-ps" xmlns="http://www.w3.org/2000/svg" viewBox="0 0 55 45" width="55" height="45">
	<title>twitterWhite2-svg</title>
	<style>
		tspan { white-space:pre }
		.shp0 { fill: #ffffff } 
	</style>
	<path id="Layer" class="shp0" d="M16.71 41.88C11.14 41.88 5.69 40.29 1 37.3C1.81 37.39 2.62 37.44 3.44 37.44C8.06 37.45 12.55 35.9 16.19 33.04C14.05 33 11.97 32.3 10.25 31.02C8.54 29.74 7.26 27.96 6.6 25.93C7.24 26.05 7.88 26.11 8.52 26.1C9.44 26.11 10.34 25.99 11.22 25.74C8.91 25.27 6.82 24.01 5.32 22.18C3.82 20.35 3 18.05 3 15.69L3 15.55C4.43 16.33 6.02 16.77 7.64 16.82C5.47 15.37 3.94 13.15 3.35 10.6C2.75 8.06 3.15 5.39 4.46 3.13C7.04 6.3 10.25 8.89 13.9 10.73C17.54 12.58 21.53 13.64 25.61 13.84C25.1 11.64 25.33 9.34 26.26 7.28C27.19 5.22 28.77 3.53 30.77 2.46C32.76 1.4 35.05 1.02 37.28 1.38C39.5 1.75 41.55 2.84 43.1 4.49C45.4 4.04 47.6 3.2 49.62 2.01C48.85 4.39 47.24 6.41 45.1 7.69C47.13 7.44 49.12 6.9 51 6.07C49.62 8.13 47.89 9.93 45.88 11.39C45.9 11.82 45.9 12.27 45.9 12.71C45.9 26.24 35.58 41.88 16.71 41.88L16.71 41.88Z" />
</svg>