<svg width="55" height="45" viewBox="0 0 55 45" fill="none" xmlns="http://www.w3.org/2000/svg">
<path d="M17.3874 44.3386C37.7658 44.3386 48.9099 27.4123 48.9099 12.7344C48.9099 12.2537 48.9001 11.7751 48.8786 11.2986C51.0418 9.73076 52.922 7.77416 54.405 5.54682C52.4199 6.43147 50.2837 7.027 48.0427 7.29553C50.3301 5.92038 52.0861 3.74505 52.9146 1.15182C50.774 2.42411 48.4035 3.34882 45.8795 3.84806C43.8578 1.68903 40.9795 0.338638 37.7925 0.338638C31.6742 0.338638 26.7128 5.31309 26.7128 11.4448C26.7128 12.3164 26.81 13.1643 27.0001 13.9775C17.7922 13.513 9.62722 9.09302 4.16279 2.37213C3.21131 4.01364 2.66268 5.92043 2.66268 7.95501C2.66268 11.8087 4.61861 15.2108 7.59292 17.201C5.77525 17.1447 4.06775 16.6444 2.57534 15.8118C2.57371 15.8584 2.5737 15.9038 2.5737 15.9536C2.5737 21.333 6.39261 25.8244 11.462 26.8421C10.5311 27.0966 9.55157 27.233 8.54062 27.233C7.82783 27.233 7.13337 27.1627 6.45838 27.0327C7.86885 31.4461 11.9589 34.6578 16.8079 34.7476C13.016 37.7274 8.23928 39.5022 3.04774 39.5022C2.15458 39.5022 1.27222 39.4512 0.405029 39.3484C5.30827 42.4994 11.1304 44.3379 17.388 44.3379" fill="#1DA1F2"/>
</svg>
