<svg width="50" height="50" viewBox="0 0 50 50" fill="none" xmlns="http://www.w3.org/2000/svg">
<path d="M15.7063 46.875C34.575 46.875 44.8969 31.2406 44.8969 17.7062C44.8969 17.2687 44.8969 16.825 44.8781 16.3875C46.8877 14.9327 48.6221 13.1317 50 11.0687C48.1229 11.8964 46.1336 12.4419 44.0969 12.6875C46.2423 11.4051 47.8491 9.38738 48.6187 7.00936C46.6031 8.20349 44.3969 9.04177 42.0969 9.48748C40.5506 7.84068 38.5044 6.74972 36.2753 6.3836C34.0461 6.01747 31.7585 6.39661 29.7667 7.46228C27.7749 8.52796 26.19 10.2207 25.2577 12.2783C24.3253 14.3359 24.0974 16.6435 24.6094 18.8437C20.5304 18.6392 16.5401 17.5796 12.897 15.7336C9.25397 13.8875 6.03964 11.2964 3.4625 8.12811C2.15419 10.3877 1.75492 13.0606 2.34577 15.6039C2.93662 18.1473 4.4733 20.3704 6.64375 21.8219C5.01731 21.7666 3.42663 21.3299 2 20.5469V20.6875C2.0028 23.0546 2.82284 25.3482 4.32148 27.1805C5.82013 29.0128 7.90546 30.2715 10.225 30.7437C9.34457 30.9863 8.43509 31.1072 7.52188 31.1031C6.87807 31.1051 6.23556 31.0454 5.60312 30.925C6.25871 32.9627 7.53523 34.7442 9.2539 36.0202C10.9726 37.2962 13.0473 38.0026 15.1875 38.0406C11.5517 40.8962 7.06063 42.445 2.4375 42.4375C1.62288 42.4409 0.808822 42.394 0 42.2969C4.69223 45.2883 10.1416 46.8767 15.7063 46.875V46.875Z" fill="white"/>
</svg>
