<svg width="198" height="30" viewBox="0 0 198 30" fill="none" xmlns="http://www.w3.org/2000/svg">
<path fill-rule="evenodd" clip-rule="evenodd" d="M179.787 16.9252L162.323 29.5H0V27.5H161.677L178.552 15.3505C177.57 13.8033 177.001 11.968 177.001 10C177.001 4.47715 181.479 0 187.001 0C192.524 0 197.001 4.47715 197.001 10C197.001 15.5228 192.524 20 187.001 20C184.167 20 181.607 18.8204 179.787 16.9252ZM187.001 19C191.972 19 196.001 14.9706 196.001 10C196.001 5.02944 191.972 1 187.001 1C182.031 1 178.001 5.02944 178.001 10C178.001 11.7499 178.501 13.3832 179.365 14.765L181.979 12.8825C181.491 12.0337 181.212 11.0495 181.212 10C181.212 6.80256 183.804 4.21053 187.001 4.21053C190.199 4.21053 192.791 6.80256 192.791 10C192.791 13.1974 190.199 15.7895 187.001 15.7895C185.577 15.7895 184.273 15.2751 183.264 14.4219L180.608 16.3344C182.239 17.9804 184.501 19 187.001 19Z" fill="white"/>
</svg>
