<svg width="332" height="67" viewBox="0 0 332 67" fill="none" xmlns="http://www.w3.org/2000/svg">
<g filter="url(#filter0_di_395_189)">
<path d="M17.0257 63.9784C23.4146 63.9784 27.1484 60.5494 30.0524 56.7858V63.1421H42.6643V18.3138H30.0524V43.3206C30.0524 49.3423 26.9824 52.4368 22.17 52.4368C17.3575 52.4368 14.5365 49.3423 14.5365 43.3206V18.3138H1.92456V47.3351C1.92456 57.6222 7.48375 63.9784 17.0257 63.9784Z" fill="white"/>
<path d="M53.9525 63.1421H66.5644V46.5824C66.5644 35.8771 71.7088 30.7754 80.089 30.7754H80.7528V17.4775C73.2852 17.143 69.1366 21.1574 66.5644 27.3464V18.3138H53.9525V63.1421Z" fill="white"/>
<path d="M108.492 64.1457C116.541 64.1457 122.515 60.9676 126.663 55.7822L119.445 49.3423C115.96 52.6041 112.89 53.9422 108.658 53.9422C103.016 53.9422 99.0335 50.9314 97.7889 45.1606H128.738C128.821 43.9897 128.904 42.8188 128.904 41.8152C128.904 29.1027 122.1 17.4775 107.248 17.4775C94.304 17.4775 85.2599 28.0155 85.2599 40.8116V40.9789C85.2599 54.695 95.1337 64.1457 108.492 64.1457ZM97.6229 37.2153C98.6186 31.4445 102.02 27.6809 107.248 27.6809C112.558 27.6809 115.877 31.5281 116.624 37.2153H97.6229Z" fill="white"/>
<path d="M159.295 64.1457C168.173 64.1457 173.152 60.7166 177.466 55.9495L170.082 48.4223C167.012 51.3496 164.108 53.1895 159.876 53.1895C152.989 53.1895 148.592 47.6696 148.592 40.8116V40.6443C148.592 34.0372 153.072 28.4336 159.378 28.4336C163.859 28.4336 166.68 30.3572 169.501 33.3681L177.217 25.0046C173.069 20.3211 167.841 17.4775 159.461 17.4775C145.854 17.4775 136.146 28.0155 136.146 40.8116V40.9789C136.146 53.775 145.937 64.1457 159.295 64.1457Z" fill="white"/>
<path d="M185.705 63.1421H198.316V49.5096L202.714 44.826L214.33 63.1421H228.768L211.26 35.9608L228.187 18.3138H213.086L198.316 34.6226V2.08871H185.705V63.1421Z" fill="white"/>
<path d="M254.523 64.1457C268.379 64.1457 278.668 53.6913 278.668 40.8116V40.6443C278.668 27.7646 268.462 17.4775 254.689 17.4775C240.832 17.4775 230.544 27.9318 230.544 40.8116V40.9789C230.544 53.8586 240.749 64.1457 254.523 64.1457ZM254.689 53.1895C247.719 53.1895 242.99 47.4187 242.99 40.8116V40.6443C242.99 34.0372 247.304 28.4336 254.523 28.4336C261.493 28.4336 266.222 34.2044 266.222 40.8116V40.9789C266.222 47.586 261.908 53.1895 254.689 53.1895Z" fill="white"/>
<path d="M287.8 63.1421H300.412V38.1353C300.412 32.1136 303.482 29.0191 308.295 29.0191C313.107 29.0191 315.928 32.1136 315.928 38.1353V63.1421H328.54V34.1208C328.54 23.8337 322.981 17.4775 313.439 17.4775C307.05 17.4775 303.316 20.9065 300.412 24.6701V18.3138H287.8V63.1421Z" fill="white"/>
</g>
<defs>
<filter id="filter0_di_395_189" x="0.924561" y="0.0887146" width="330.615" height="66.0569" filterUnits="userSpaceOnUse" color-interpolation-filters="sRGB">
<feFlood flood-opacity="0" result="BackgroundImageFix"/>
<feColorMatrix in="SourceAlpha" type="matrix" values="0 0 0 0 0 0 0 0 0 0 0 0 0 0 0 0 0 0 127 0" result="hardAlpha"/>
<feOffset dx="1"/>
<feGaussianBlur stdDeviation="1"/>
<feComposite in2="hardAlpha" operator="out"/>
<feColorMatrix type="matrix" values="0 0 0 0 0.160784 0 0 0 0 0.0392157 0 0 0 0 0.388235 0 0 0 1 0"/>
<feBlend mode="normal" in2="BackgroundImageFix" result="effect1_dropShadow_395_189"/>
<feBlend mode="normal" in="SourceGraphic" in2="effect1_dropShadow_395_189" result="shape"/>
<feColorMatrix in="SourceAlpha" type="matrix" values="0 0 0 0 0 0 0 0 0 0 0 0 0 0 0 0 0 0 127 0" result="hardAlpha"/>
<feOffset dy="1"/>
<feGaussianBlur stdDeviation="1"/>
<feComposite in2="hardAlpha" operator="arithmetic" k2="-1" k3="1"/>
<feColorMatrix type="matrix" values="0 0 0 0 0.262745 0 0 0 0 0.788235 0 0 0 0 0.929412 0 0 0 1 0"/>
<feBlend mode="normal" in2="shape" result="effect2_innerShadow_395_189"/>
</filter>
</defs>
</svg>
