<svg width="274" height="92" viewBox="0 0 274 92" fill="none" xmlns="http://www.w3.org/2000/svg">
<g style="mix-blend-mode:hard-light" filter="url(#filter0_f_2786_21)">
<path d="M39.0608 64.2955V66.1125H40.9249H49.8588H51.723V64.2484V32.4934V30.6292H49.8588H40.9249H39.0608V32.4934V50.2075C39.0608 52.0422 38.5938 53.1556 38.0237 53.7911C37.4782 54.3993 36.6322 54.8009 35.3413 54.8009C34.0558 54.8009 33.2726 54.4043 32.7753 53.8235C32.239 53.1971 31.7981 52.0789 31.7981 50.2075V32.4934V30.6292H29.9339H21H19.1358V32.4934V53.0512C19.1358 57.0164 20.209 60.4552 22.4271 62.9244C24.669 65.4201 27.8836 66.705 31.6972 66.705C34.8258 66.705 37.1931 65.7002 39.0608 64.2955ZM55.9909 64.2484V66.1125H57.8551H66.789H68.6531V64.2484V52.518C68.6531 48.998 69.5003 46.7097 70.7436 45.3173C71.957 43.9582 73.7879 43.185 76.3694 43.185H76.8396H78.7038V41.3208V31.901V30.1184L76.923 30.0387C73.9014 29.9033 71.4024 30.6525 69.3886 32.1772C69.1333 32.3705 68.8883 32.5744 68.6531 32.7879V32.4934V30.6292H66.789H57.8551H55.9909V32.4934V64.2484ZM110.817 60.1995L111.921 58.8199L110.602 57.6438L105.817 53.375H110.831H112.567L112.69 51.6426L112.693 51.6026C112.75 50.8022 112.812 49.9183 112.812 49.1411C112.812 44.3332 111.529 39.5808 108.685 35.9873C105.796 32.3364 101.412 30.0368 95.6078 30.0368C85.259 30.0368 78.1681 38.4932 78.1681 48.4301V48.5486C78.1681 59.3203 86.0233 66.8235 96.4895 66.8235C102.751 66.8235 107.521 64.3193 110.817 60.1995ZM91.5944 53.375H102.687C101.676 54.282 100.779 54.8749 99.8915 55.2553C98.9333 55.6659 97.8966 55.8673 96.607 55.8673C94.9435 55.8673 93.672 55.4276 92.7482 54.6942C92.3161 54.351 91.9253 53.9161 91.5944 53.375ZM146.731 60.4043L147.909 59.1018L146.679 57.8478L141.448 52.5159L140.161 51.204L138.831 52.4722C136.819 54.391 135.201 55.3341 132.888 55.3341C129.263 55.3341 126.759 52.4977 126.759 48.4301V48.3116C126.759 44.3807 129.358 41.5261 132.535 41.5261C135.001 41.5261 136.542 42.5068 138.346 44.432L139.717 45.8951L141.076 44.4215L146.542 38.4971L147.685 37.2584L146.568 35.9969C143.277 32.2816 139.067 30.0368 132.594 30.0368C121.881 30.0368 114.214 38.3811 114.214 48.4301V48.5486C114.214 58.6108 121.953 66.8235 132.477 66.8235C135.875 66.8235 138.621 66.164 140.961 64.9886C143.29 63.8194 145.114 62.1908 146.731 60.4043ZM149.32 64.2484V66.1125H151.184H160.118H161.982V64.2484V55.3295L162.947 54.3025L169.888 65.2468L170.437 66.1125H171.462H181.689H185.107L183.256 63.2389L171.652 45.222L182.623 33.7838L185.649 30.6292H181.277H170.58H169.753L169.199 31.2421L161.982 39.2104V21V19.1358H160.118H151.184H149.32V21V64.2484ZM221.642 64.2484V66.1125H223.506H232.44H234.304V64.2484V46.5343C234.304 44.6996 234.771 43.5862 235.341 42.9506C235.886 42.3425 236.732 41.9408 238.023 41.9408C239.309 41.9408 240.092 42.3375 240.589 42.9183C241.126 43.5446 241.567 44.6629 241.567 46.5343V64.2484V66.1125H243.431H252.365H254.229V64.2484V43.6906C254.229 39.7254 253.156 36.2866 250.938 33.8174C248.696 31.3216 245.481 30.0368 241.668 30.0368C238.539 30.0368 236.172 31.0416 234.304 32.4463V30.6292H232.44H223.506H221.642V32.4934V64.2484ZM99.8692 44.0184H91.2637C91.5782 43.3054 91.9677 42.7251 92.4064 42.2773C93.1996 41.4676 94.2434 40.9929 95.6078 40.9929C96.999 40.9929 98.0311 41.4796 98.7885 42.278C99.2135 42.7259 99.5832 43.3068 99.8692 44.0184ZM199.933 66.8235C210.745 66.8235 218.901 58.6164 218.901 48.4301V48.3116C218.901 38.1207 210.799 30.0368 200.051 30.0368C189.239 30.0368 181.083 38.2439 181.083 48.4301V48.5486C181.083 58.7396 189.185 66.8235 199.933 66.8235ZM200.051 55.3341C196.313 55.3341 193.628 52.2599 193.628 48.4301V48.3116C193.628 46.3686 194.261 44.6647 195.324 43.4707C196.364 42.3012 197.895 41.5261 199.933 41.5261C203.67 41.5261 206.356 44.6004 206.356 48.4301V48.5486C206.356 50.4916 205.723 52.1955 204.66 53.3895C203.62 54.559 202.089 55.3341 200.051 55.3341Z" stroke="#0DB3B3" stroke-width="3.72835"/>
</g>
<g style="mix-blend-mode:hard-light" filter="url(#filter1_f_2786_21)">
<path d="M38.4872 65.3866V66.6861H40.9249H49.8588H52.2966V64.2484V32.4934V30.0556H49.8588H40.9249H38.4872V32.4934V50.2075C38.4872 51.9505 38.0438 52.9097 37.5967 53.4081C37.1818 53.8707 36.505 54.2273 35.3413 54.2273C34.1847 54.2273 33.5765 53.8773 33.211 53.4504C32.7945 52.964 32.3717 51.9984 32.3717 50.2075V32.4934V30.0556H29.9339H21H18.5622V32.4934V53.0512C18.5622 57.1153 19.6627 60.7054 22.0004 63.3077C24.3692 65.9447 27.75 67.2786 31.6972 67.2786C34.4833 67.2786 36.6928 66.5135 38.4872 65.3866ZM55.4173 64.2484V66.6861H57.8551H66.789H69.2267V64.2484V52.518C69.2267 49.0816 70.0542 46.9505 71.1714 45.6993C72.2496 44.4918 73.9068 43.7586 76.3694 43.7586H76.8396H78.1194C77.7745 45.2613 77.5945 46.8279 77.5945 48.4301V48.5486C77.5945 59.6451 85.7146 67.3971 96.4895 67.3971C102.924 67.3971 107.859 64.8151 111.265 60.5578L112.708 58.7538L110.984 57.2158L107.322 53.9486H110.831H113.102L113.262 51.6831L113.266 51.6334C113.322 50.8402 113.386 49.939 113.386 49.1411C113.386 44.2393 112.078 39.3507 109.135 35.6313C106.132 31.8369 101.58 29.4632 95.6078 29.4632C87.943 29.4632 82.0243 33.9491 79.2774 40.2401V31.901V29.57L76.9487 29.4656C73.9009 29.3291 71.3274 30.0605 69.2267 31.5833V30.0556H66.789H57.8551H55.4173V32.4934V64.2484ZM93.1049 54.2449C92.9907 54.1543 92.879 54.0557 92.7706 53.9486H101.052C100.57 54.2831 100.113 54.5362 99.6656 54.728C98.7901 55.1032 97.8323 55.2937 96.607 55.2937C95.0465 55.2937 93.9083 54.8828 93.1049 54.2449ZM147.156 60.7892L148.697 59.086L147.089 57.4461L141.858 52.1142L140.175 50.3986L138.435 52.0571C136.473 53.9282 134.991 54.7605 132.888 54.7605C129.649 54.7605 127.332 52.2545 127.332 48.4301V48.3116C127.332 44.6112 129.754 42.0997 132.535 42.0997C134.783 42.0997 136.183 42.9629 137.927 44.8242L139.72 46.7374L141.498 44.8104L146.964 38.886L148.458 37.2663L146.997 35.6165C143.598 31.779 139.232 29.4632 132.594 29.4632C121.551 29.4632 113.641 38.0781 113.641 48.4301V48.5486C113.641 58.9179 121.626 67.3971 132.477 67.3971C135.952 67.3971 138.789 66.7216 141.219 65.5012C143.633 64.2889 145.512 62.6059 147.156 60.7892ZM148.747 64.2484V66.6861H151.184H160.118H162.556V64.2484V55.5566L162.858 55.2344L169.403 65.554L170.121 66.6861H171.462H181.689H186.159L183.738 62.9283L172.379 45.2922L183.037 34.1809L186.994 30.0556H181.277H170.58H169.499L168.773 30.857L162.556 37.7225V21V18.5622H160.118H151.184H148.747V21V64.2484ZM221.068 64.2484V66.6861H223.506H232.44H234.878V64.2484V46.5343C234.878 44.7913 235.321 43.8321 235.768 43.3336C236.183 42.871 236.86 42.5144 238.023 42.5144C239.18 42.5144 239.788 42.8645 240.154 43.2913C240.57 43.7777 240.993 44.7433 240.993 46.5343V64.2484V66.6861H243.431H252.365H254.802V64.2484V43.6906C254.802 39.6264 253.702 36.0364 251.364 33.4341C248.996 30.797 245.615 29.4632 241.668 29.4632C238.881 29.4632 236.672 30.2282 234.878 31.3552V30.0556H232.44H223.506H221.068V32.4934V64.2484ZM98.9503 43.4449H92.2152C92.4025 43.1497 92.6045 42.8947 92.8162 42.6787C93.4985 41.9822 94.3933 41.5665 95.6078 41.5665C96.8484 41.5665 97.7278 41.9934 98.3724 42.6727C98.5782 42.8897 98.7729 43.1468 98.9503 43.4449ZM199.933 67.3971C211.051 67.3971 219.475 58.9434 219.475 48.4301V48.3116C219.475 37.7923 211.104 29.4632 200.051 29.4632C188.933 29.4632 180.509 37.9169 180.509 48.4301V48.5486C180.509 59.068 188.88 67.3971 199.933 67.3971ZM200.051 54.7605C196.683 54.7605 194.201 51.9982 194.201 48.4301V48.3116C194.201 46.4908 194.795 44.928 195.752 43.852C196.681 42.808 198.054 42.0997 199.933 42.0997C203.301 42.0997 205.783 44.8621 205.783 48.4301V48.5486C205.783 50.3694 205.189 51.9323 204.232 53.0083C203.303 54.0523 201.93 54.7605 200.051 54.7605Z" stroke="#0DB3B3" stroke-width="4.87553"/>
</g>
<g style="mix-blend-mode:hard-light" filter="url(#filter2_ddi_2786_21)">
<path d="M39.0608 64.2955V66.1125H40.9249H49.8588H51.723V64.2484V32.4934V30.6292H49.8588H40.9249H39.0608V32.4934V50.2075C39.0608 52.0422 38.5938 53.1556 38.0237 53.7911C37.4782 54.3993 36.6322 54.8009 35.3413 54.8009C34.0558 54.8009 33.2726 54.4043 32.7753 53.8235C32.239 53.1971 31.7981 52.0789 31.7981 50.2075V32.4934V30.6292H29.9339H21H19.1358V32.4934V53.0512C19.1358 57.0164 20.209 60.4552 22.4271 62.9244C24.669 65.4201 27.8836 66.705 31.6972 66.705C34.8258 66.705 37.1931 65.7002 39.0608 64.2955ZM55.9909 64.2484V66.1125H57.8551H66.789H68.6531V64.2484V52.518C68.6531 48.998 69.5003 46.7097 70.7436 45.3173C71.957 43.9582 73.7879 43.185 76.3694 43.185H76.8396H78.7038V41.3208V31.901V30.1184L76.923 30.0387C73.9014 29.9033 71.4024 30.6525 69.3886 32.1772C69.1333 32.3705 68.8883 32.5744 68.6531 32.7879V32.4934V30.6292H66.789H57.8551H55.9909V32.4934V64.2484ZM110.817 60.1995L111.921 58.8199L110.602 57.6438L105.817 53.375H110.831H112.567L112.69 51.6426L112.693 51.6026C112.75 50.8022 112.812 49.9183 112.812 49.1411C112.812 44.3332 111.529 39.5808 108.685 35.9873C105.796 32.3364 101.412 30.0368 95.6078 30.0368C85.259 30.0368 78.1681 38.4932 78.1681 48.4301V48.5486C78.1681 59.3203 86.0233 66.8235 96.4895 66.8235C102.751 66.8235 107.521 64.3193 110.817 60.1995ZM91.5944 53.375H102.687C101.676 54.282 100.779 54.8749 99.8915 55.2553C98.9333 55.6659 97.8966 55.8673 96.607 55.8673C94.9435 55.8673 93.672 55.4276 92.7482 54.6942C92.3161 54.351 91.9253 53.9161 91.5944 53.375ZM146.731 60.4043L147.909 59.1018L146.679 57.8478L141.448 52.5159L140.161 51.204L138.831 52.4722C136.819 54.391 135.201 55.3341 132.888 55.3341C129.263 55.3341 126.759 52.4977 126.759 48.4301V48.3116C126.759 44.3807 129.358 41.5261 132.535 41.5261C135.001 41.5261 136.542 42.5068 138.346 44.432L139.717 45.8951L141.076 44.4215L146.542 38.4971L147.685 37.2584L146.568 35.9969C143.277 32.2816 139.067 30.0368 132.594 30.0368C121.881 30.0368 114.214 38.3811 114.214 48.4301V48.5486C114.214 58.6108 121.953 66.8235 132.477 66.8235C135.875 66.8235 138.621 66.164 140.961 64.9886C143.29 63.8194 145.114 62.1908 146.731 60.4043ZM149.32 64.2484V66.1125H151.184H160.118H161.982V64.2484V55.3295L162.947 54.3025L169.888 65.2468L170.437 66.1125H171.462H181.689H185.107L183.256 63.2389L171.652 45.222L182.623 33.7838L185.649 30.6292H181.277H170.58H169.753L169.199 31.2421L161.982 39.2104V21V19.1358H160.118H151.184H149.32V21V64.2484ZM221.642 64.2484V66.1125H223.506H232.44H234.304V64.2484V46.5343C234.304 44.6996 234.771 43.5862 235.341 42.9506C235.886 42.3425 236.732 41.9408 238.023 41.9408C239.309 41.9408 240.092 42.3375 240.589 42.9183C241.126 43.5446 241.567 44.6629 241.567 46.5343V64.2484V66.1125H243.431H252.365H254.229V64.2484V43.6906C254.229 39.7254 253.156 36.2866 250.938 33.8174C248.696 31.3216 245.481 30.0368 241.668 30.0368C238.539 30.0368 236.172 31.0416 234.304 32.4463V30.6292H232.44H223.506H221.642V32.4934V64.2484ZM99.8692 44.0184H91.2637C91.5782 43.3054 91.9677 42.7251 92.4064 42.2773C93.1996 41.4676 94.2434 40.9929 95.6078 40.9929C96.999 40.9929 98.0311 41.4796 98.7885 42.278C99.2135 42.7259 99.5832 43.3068 99.8692 44.0184ZM199.933 66.8235C210.745 66.8235 218.901 58.6164 218.901 48.4301V48.3116C218.901 38.1207 210.799 30.0368 200.051 30.0368C189.239 30.0368 181.083 38.2439 181.083 48.4301V48.5486C181.083 58.7396 189.185 66.8235 199.933 66.8235ZM200.051 55.3341C196.313 55.3341 193.628 52.2599 193.628 48.4301V48.3116C193.628 46.3686 194.261 44.6647 195.324 43.4707C196.364 42.3012 197.895 41.5261 199.933 41.5261C203.67 41.5261 206.356 44.6004 206.356 48.4301V48.5486C206.356 50.4916 205.723 52.1955 204.66 53.3895C203.62 54.559 202.089 55.3341 200.051 55.3341Z" stroke="#0DB3B3" stroke-width="3.72835"/>
</g>
<g filter="url(#filter3_f_2786_21)">
<path d="M31.6972 65.988C35.3079 65.988 37.8411 64.5765 39.7778 62.7526V64.2484V65.3955H40.9249H49.8588H51.006V64.2484V32.4934V31.3462H49.8588H40.9249H39.7778V32.4934V50.2075C39.7778 52.1568 39.2813 53.4629 38.5575 54.2699C37.8488 55.06 36.7913 55.5179 35.3413 55.5179C33.8946 55.5179 32.8927 55.0631 32.2306 54.2898C31.5446 53.4885 31.0811 52.1794 31.0811 50.2075V32.4934V31.3462H29.9339H21H19.8528V32.4934V53.0512C19.8528 56.8927 20.8919 60.1425 22.9605 62.4453C25.0437 64.7644 28.0505 65.988 31.6972 65.988ZM56.7079 64.2484V65.3955H57.8551H66.789H67.9361V64.2484V52.518C67.9361 48.8935 68.8079 46.4087 70.2088 44.8397C71.5913 43.2913 73.6391 42.468 76.3694 42.468H76.8396H77.9868V41.3208V31.901V30.804L76.8909 30.7549C74.0142 30.626 71.6851 31.3378 69.8214 32.7489C69.1166 33.2825 68.4922 33.9056 67.9361 34.6007V32.4934V31.3462H66.789H57.8551H56.7079V32.4934V64.2484ZM110.257 59.7515L110.936 58.9026L110.125 58.1788L105.012 53.617L104.229 52.9191L103.464 53.6355C102.294 54.7304 101.243 55.4561 100.174 55.9143C99.1124 56.3692 97.9771 56.5843 96.607 56.5843C94.8147 56.5843 93.3767 56.1087 92.3024 55.2557C91.5244 54.6379 90.8861 53.7818 90.4435 52.658H110.831H111.899L111.975 51.5919L111.977 51.5654C112.034 50.7551 112.095 49.8926 112.095 49.1411C112.095 44.4506 110.842 39.8684 108.123 36.4322C105.376 32.9607 101.203 30.7538 95.6078 30.7538C85.7128 30.7538 78.8851 38.8288 78.8851 48.4301V48.5486C78.8851 58.9143 86.4092 66.1065 96.4895 66.1065C102.536 66.1065 107.098 63.6996 110.257 59.7515ZM146.199 59.9232L146.925 59.1216L146.167 58.35L140.936 53.018L140.144 52.2107L139.326 52.9911C137.251 54.9694 135.465 56.0511 132.888 56.0511C128.781 56.0511 126.042 52.8017 126.042 48.4301V48.3116C126.042 44.0925 128.862 40.8091 132.535 40.8091C135.274 40.8091 136.99 41.9367 138.869 43.9418L139.713 44.8421L140.549 43.9353L146.015 38.0109L146.719 37.2486L146.031 36.4723C142.875 32.91 138.86 30.7538 132.594 30.7538C122.294 30.7538 114.931 38.7598 114.931 48.4301V48.5486C114.931 58.2271 122.361 66.1065 132.477 66.1065C135.777 66.1065 138.411 65.4671 140.64 64.3478C142.861 63.2324 144.616 61.672 146.199 59.9232ZM150.037 64.2484V65.3955H151.184H160.118H161.265V64.2484V55.0457L163.057 53.1377L170.493 64.8628L170.831 65.3955H171.462H181.689H183.792L182.653 63.6272L170.742 45.1343L182.105 33.2875L183.967 31.3462H181.277H170.58H170.071L169.73 31.7233L161.265 41.0703V21V19.8528H160.118H151.184H150.037V21V64.2484ZM222.359 64.2484V65.3955H223.506H232.44H233.587V64.2484V46.5343C233.587 44.5849 234.083 43.2788 234.807 42.4719C235.516 41.6818 236.573 41.2239 238.023 41.2239C239.47 41.2239 240.472 41.6787 241.134 42.452C241.82 43.2533 242.284 44.5624 242.284 46.5343V64.2484V65.3955H243.431H252.365H253.512V64.2484V43.6906C253.512 39.8491 252.473 36.5993 250.404 34.2965C248.321 31.9774 245.314 30.7538 241.668 30.7538C238.057 30.7538 235.524 32.1653 233.587 33.9892V32.4934V31.3462H232.44H223.506H222.359V32.4934V64.2484ZM100.859 44.7354H90.2361C90.6142 43.4951 91.1842 42.5004 91.8943 41.7755C92.826 40.8244 94.0561 40.2759 95.6078 40.2759C97.1873 40.2759 98.4102 40.8375 99.3087 41.7845C99.9978 42.5109 100.533 43.5055 100.859 44.7354ZM199.933 66.1065C210.362 66.1065 218.184 58.2077 218.184 48.4301V48.3116C218.184 38.5312 210.418 30.7538 200.051 30.7538C189.622 30.7538 181.8 38.6526 181.8 48.4301V48.5486C181.8 58.3291 189.566 66.1065 199.933 66.1065ZM200.051 56.0511C195.852 56.0511 192.911 52.587 192.911 48.4301V48.3116C192.911 46.2159 193.594 44.3356 194.788 42.9942C195.968 41.6678 197.695 40.8091 199.933 40.8091C204.132 40.8091 207.073 44.2732 207.073 48.4301V48.5486C207.073 50.6444 206.389 52.5246 205.196 53.8661C204.016 55.1925 202.288 56.0511 200.051 56.0511Z" stroke="#0DB3B3" stroke-width="2.29437"/>
</g>
<g filter="url(#filter4_f_2786_21)">
<path d="M31.6972 65.4144C35.7441 65.4144 38.3662 63.5604 40.3513 61.3395V64.2484V64.822H40.9249H49.8588H50.4324V64.2484V32.4934V31.9198H49.8588H40.9249H40.3513V32.4934V50.2075C40.3513 52.2485 39.8313 53.7088 38.9845 54.6529C38.1452 55.5885 36.9185 56.0915 35.3413 56.0915C33.7657 56.0915 32.5888 55.5901 31.7949 54.6628C30.989 53.7216 30.5075 52.2598 30.5075 50.2075V32.4934V31.9198H29.9339H21H20.4264V32.4934V53.0512C20.4264 56.7937 21.4382 59.8923 23.3872 62.062C25.3435 64.2398 28.184 65.4144 31.6972 65.4144ZM57.2815 64.2484V64.822H57.8551H66.789H67.3625V64.2484V52.518C67.3625 48.8099 68.2539 46.1679 69.7809 44.4577C71.2987 42.7578 73.5202 41.8944 76.3694 41.8944H76.8396H77.4132V41.3208V31.901V31.3525L76.8653 31.3279C74.1044 31.2043 71.9113 31.886 70.1676 33.2062C69.0422 34.0582 68.1239 35.1612 67.3625 36.4454V32.4934V31.9198H66.789H57.8551H57.2815V32.4934V64.2484ZM109.809 59.3932L110.149 58.9687L109.743 58.6068L104.63 54.045L104.239 53.6961L103.856 54.0543C102.654 55.1793 101.548 55.9495 100.4 56.4415C99.2556 56.9319 98.0414 57.1579 96.607 57.1579C94.7117 57.1579 93.1404 56.6535 91.9457 55.7049C90.8996 54.8743 90.1049 53.6736 89.6432 52.0844H110.831H111.365L111.403 51.5514L111.404 51.5378C111.462 50.7183 111.522 49.8724 111.522 49.1411C111.522 44.5446 110.293 40.0984 107.673 36.7881C105.04 33.4602 101.036 31.3274 95.6078 31.3274C86.0758 31.3274 79.4587 39.0973 79.4587 48.4301V48.5486C79.4587 58.5895 86.7179 65.5329 96.4895 65.5329C102.363 65.5329 106.76 63.2038 109.809 59.3932ZM145.774 59.5383L146.137 59.1375L145.758 58.7517L140.527 53.4197L140.131 53.016L139.722 53.4062C137.597 55.4322 135.675 56.6247 132.888 56.6247C128.395 56.6247 125.468 53.0449 125.468 48.4301V48.3116C125.468 43.8619 128.465 40.2356 132.535 40.2356C135.491 40.2356 137.349 41.4807 139.288 43.5496L139.709 43.9997L140.128 43.5463L145.594 37.6219L145.945 37.2408L145.602 36.8526C142.554 33.4126 138.696 31.3274 132.594 31.3274C122.625 31.3274 115.505 39.0628 115.505 48.4301V48.5486C115.505 57.92 122.687 65.5329 132.477 65.5329C135.699 65.5329 138.243 64.9096 140.382 63.8353C142.518 62.7629 144.218 61.2569 145.774 59.5383ZM150.611 64.2484V64.822H151.184H160.118H160.692V64.2484V54.8186L163.145 52.2058L170.978 64.5556L171.146 64.822H171.462H181.689H182.741L182.171 63.9378L170.015 45.0641L181.691 32.8905L182.622 31.9198H181.277H170.58H170.326L170.155 32.1084L160.692 42.5582V21V20.4264H160.118H151.184H150.611V21V64.2484ZM222.932 64.2484V64.822H223.506H232.44H233.013V64.2484V46.5343C233.013 44.4932 233.533 43.033 234.38 42.0889C235.219 41.1532 236.446 40.6503 238.023 40.6503C239.599 40.6503 240.776 41.1517 241.57 42.0789C242.376 43.0202 242.857 44.4819 242.857 46.5343V64.2484V64.822H243.431H252.365H252.938V64.2484V43.6906C252.938 39.9481 251.927 36.8495 249.978 34.6798C248.021 32.502 245.181 31.3274 241.668 31.3274C237.621 31.3274 234.998 33.1814 233.013 35.4023V32.4934V31.9198H232.44H223.506H222.932V32.4934V64.2484ZM101.577 45.309H89.4899C89.8704 43.6587 90.5555 42.3225 91.4845 41.3741C92.5271 40.3098 93.9063 39.7024 95.6078 39.7024C97.338 39.7024 98.7135 40.3238 99.7248 41.3897C100.628 42.3422 101.267 43.6781 101.577 45.309ZM199.933 65.5329C210.055 65.5329 217.61 57.8807 217.61 48.4301V48.3116C217.61 38.8596 210.113 31.3274 200.051 31.3274C189.929 31.3274 182.373 38.9795 182.373 48.4301V48.5486C182.373 58.0007 189.871 65.5329 199.933 65.5329ZM200.051 56.6247C195.483 56.6247 192.337 52.8487 192.337 48.4301V48.3116C192.337 46.0937 193.061 44.0723 194.359 42.6129C195.651 41.161 197.536 40.2356 199.933 40.2356C204.501 40.2356 207.647 44.0115 207.647 48.4301V48.5486C207.647 50.7666 206.923 52.7879 205.625 54.2473C204.333 55.6992 202.448 56.6247 200.051 56.6247Z" stroke="white" stroke-width="1.14718"/>
</g>
<path d="M64.3681 88.9594H71.6201V87.0974H67.3501L68.9461 85.8654C70.6821 84.5214 71.5221 83.7094 71.5221 82.0714V82.0434C71.5221 80.2094 70.1781 79.0194 68.1481 79.0194C66.3981 79.0194 65.4601 79.7334 64.4941 81.0494L66.0061 82.2674C66.7341 81.3713 67.2521 80.9514 68.0081 80.9514C68.7781 80.9514 69.3241 81.3994 69.3241 82.2254C69.3241 83.0374 68.8481 83.5694 67.6301 84.5774L64.3681 87.2514V88.9594ZM72.9048 88.9594H74.2728V86.2684C74.2728 85.6204 74.6058 85.2874 75.1278 85.2874C75.6498 85.2874 75.9558 85.6204 75.9558 86.2684V88.9594H77.3238V85.8364C77.3238 84.7294 76.7208 84.0454 75.6858 84.0454C74.9928 84.0454 74.5878 84.4144 74.2728 84.8194V84.1354H72.9048V88.9594ZM80.4202 89.0494C81.1312 89.0494 81.5902 88.7164 81.9232 88.2664V88.9594H83.2912V82.3894H81.9232V84.7654C81.5992 84.3784 81.1492 84.0454 80.4202 84.0454C79.2772 84.0454 78.2242 84.9274 78.2242 86.5384V86.5564C78.2242 88.1674 79.2952 89.0494 80.4202 89.0494ZM80.7712 87.8884C80.1322 87.8884 79.5922 87.3574 79.5922 86.5564V86.5384C79.5922 85.7284 80.1322 85.2064 80.7712 85.2064C81.4102 85.2064 81.9412 85.7374 81.9412 86.5384V86.5564C81.9412 87.3574 81.4102 87.8884 80.7712 87.8884ZM89.8947 89.0494C90.5607 89.0494 91.0197 88.8064 91.3527 88.4374V88.9594H92.6757V86.1604C92.6757 85.5124 92.5137 84.9814 92.1537 84.6214C91.8117 84.2794 91.2717 84.0814 90.5247 84.0814C89.7057 84.0814 89.1837 84.2344 88.6527 84.4684L88.9947 85.5124C89.4357 85.3504 89.8047 85.2514 90.3267 85.2514C91.0107 85.2514 91.3617 85.5664 91.3617 86.1334V86.2144C91.0197 86.0974 90.6687 86.0164 90.1827 86.0164C89.0397 86.0164 88.2387 86.5024 88.2387 87.5554V87.5734C88.2387 88.5274 88.9857 89.0494 89.8947 89.0494ZM90.3087 88.1044C89.8677 88.1044 89.5617 87.8884 89.5617 87.5194V87.5014C89.5617 87.0694 89.9217 86.8354 90.5067 86.8354C90.8397 86.8354 91.1457 86.9074 91.3797 87.0154V87.2584C91.3797 87.7534 90.9477 88.1044 90.3087 88.1044ZM93.7809 88.9594H95.1489V86.2684C95.1489 85.6204 95.4819 85.2874 96.0039 85.2874C96.5259 85.2874 96.8319 85.6204 96.8319 86.2684V88.9594H98.1999V85.8364C98.1999 84.7294 97.5969 84.0454 96.5619 84.0454C95.8689 84.0454 95.4639 84.4144 95.1489 84.8194V84.1354H93.7809V88.9594ZM101.296 89.0494C102.007 89.0494 102.466 88.7164 102.799 88.2664V88.9594H104.167V82.3894H102.799V84.7654C102.475 84.3784 102.025 84.0454 101.296 84.0454C100.153 84.0454 99.1003 84.9274 99.1003 86.5384V86.5564C99.1003 88.1674 100.171 89.0494 101.296 89.0494ZM101.647 87.8884C101.008 87.8884 100.468 87.3574 100.468 86.5564V86.5384C100.468 85.7284 101.008 85.2064 101.647 85.2064C102.286 85.2064 102.817 85.7374 102.817 86.5384V86.5564C102.817 87.3574 102.286 87.8884 101.647 87.8884ZM113.145 89.1274C115.329 89.1274 116.673 87.7694 116.673 85.9214V85.8934C116.673 84.0734 115.371 83.3734 114.041 83.1494L116.519 80.7833V79.1593H109.897V81.0074H113.747L111.409 83.3594L111.745 84.7314H112.641C113.845 84.7314 114.559 85.1794 114.559 85.9774V86.0054C114.559 86.7334 113.985 87.1954 113.173 87.1954C112.179 87.1954 111.479 86.7754 110.807 86.0194L109.323 87.4334C110.163 88.4274 111.381 89.1274 113.145 89.1274ZM117.986 88.9594H119.354V87.1774C119.354 86.0254 119.912 85.4764 120.821 85.4764H120.893V84.0454C120.083 84.0094 119.633 84.4414 119.354 85.1074V84.1354H117.986V88.9594ZM123.568 89.0494C124.279 89.0494 124.738 88.7164 125.071 88.2664V88.9594H126.439V82.3894H125.071V84.7654C124.747 84.3784 124.297 84.0454 123.568 84.0454C122.425 84.0454 121.372 84.9274 121.372 86.5384V86.5564C121.372 88.1674 122.443 89.0494 123.568 89.0494ZM123.919 87.8884C123.28 87.8884 122.74 87.3574 122.74 86.5564V86.5384C122.74 85.7284 123.28 85.2064 123.919 85.2064C124.558 85.2064 125.089 85.7374 125.089 86.5384V86.5564C125.089 87.3574 124.558 87.8884 123.919 87.8884ZM131.398 88.9594H133.596L134.492 86.7614H138.636L139.532 88.9594H141.786L137.586 79.0893H135.598L131.398 88.9594ZM135.262 84.8574L136.564 81.6794L137.866 84.8574H135.262ZM142.963 91.1994H145.091V87.9794C145.595 88.5814 146.295 89.0994 147.429 89.0994C149.207 89.0994 150.845 87.7274 150.845 85.2214V85.1934C150.845 82.6874 149.179 81.3154 147.429 81.3154C146.323 81.3154 145.609 81.8334 145.091 82.5334V81.4554H142.963V91.1994ZM146.883 87.2934C145.889 87.2934 145.063 86.4674 145.063 85.2214V85.1934C145.063 83.9474 145.889 83.1214 146.883 83.1214C147.877 83.1214 148.717 83.9474 148.717 85.1934V85.2214C148.717 86.4814 147.877 87.2934 146.883 87.2934ZM152.298 88.9594H154.426V86.1874C154.426 84.3954 155.294 83.5414 156.708 83.5414H156.82V81.3154C155.56 81.2594 154.86 81.9314 154.426 82.9674V81.4554H152.298V88.9594ZM158.08 80.6294H160.32V78.7394H158.08V80.6294ZM158.136 88.9594H160.264V81.4554H158.136V88.9594ZM162.248 88.9594H164.376V78.7394H162.248V88.9594ZM165.857 91.2274C167.523 91.1994 168.447 90.4574 168.447 88.6094V86.7194H166.179V88.9594H167.047C167.117 89.7574 166.641 90.2474 165.675 90.3454L165.857 91.2274ZM173.976 88.9594H181.228V87.0974H176.958L178.554 85.8654C180.29 84.5214 181.13 83.7094 181.13 82.0714V82.0434C181.13 80.2094 179.786 79.0194 177.756 79.0194C176.006 79.0194 175.068 79.7334 174.102 81.0494L175.614 82.2674C176.342 81.3713 176.86 80.9514 177.616 80.9514C178.386 80.9514 178.932 81.3994 178.932 82.2254C178.932 83.0374 178.456 83.5694 177.238 84.5774L173.976 87.2514V88.9594ZM186.997 89.1274C189.615 89.1274 191.365 86.9014 191.365 84.0594V84.0314C191.365 81.1894 189.615 78.9914 187.025 78.9914C184.421 78.9914 182.657 81.2174 182.657 84.0594V84.0874C182.657 86.9294 184.379 89.1274 186.997 89.1274ZM187.025 87.1814C185.723 87.1814 184.869 85.8514 184.869 84.0594V84.0314C184.869 82.2394 185.709 80.9374 186.997 80.9374C188.285 80.9374 189.153 82.2814 189.153 84.0594V84.0874C189.153 85.8654 188.327 87.1814 187.025 87.1814ZM192.565 88.9594H199.817V87.0974H195.547L197.143 85.8654C198.879 84.5214 199.719 83.7094 199.719 82.0714V82.0434C199.719 80.2094 198.375 79.0194 196.345 79.0194C194.595 79.0194 193.657 79.7334 192.691 81.0494L194.203 82.2674C194.931 81.3713 195.449 80.9514 196.205 80.9514C196.975 80.9514 197.521 81.3994 197.521 82.2254C197.521 83.0374 197.045 83.5694 195.827 84.5774L192.565 87.2514V88.9594ZM201.175 88.9594H208.427V87.0974H204.157L205.753 85.8654C207.489 84.5214 208.329 83.7094 208.329 82.0714V82.0434C208.329 80.2094 206.985 79.0194 204.955 79.0194C203.205 79.0194 202.267 79.7334 201.301 81.0494L202.813 82.2674C203.541 81.3713 204.059 80.9514 204.815 80.9514C205.585 80.9514 206.131 81.3994 206.131 82.2254C206.131 83.0374 205.655 83.5694 204.437 84.5774L201.175 87.2514V88.9594Z" fill="white"/>
<defs>
<filter id="filter0_f_2786_21" x="0.0637341" y="0.0638561" width="273.237" height="85.8315" filterUnits="userSpaceOnUse" color-interpolation-filters="sRGB">
<feFlood flood-opacity="0" result="BackgroundImageFix"/>
<feBlend mode="normal" in="SourceGraphic" in2="BackgroundImageFix" result="shape"/>
<feGaussianBlur stdDeviation="8.60388" result="effect1_foregroundBlur_2786_21"/>
</filter>
<filter id="filter1_f_2786_21" x="10.3886" y="10.3886" width="252.588" height="65.1822" filterUnits="userSpaceOnUse" color-interpolation-filters="sRGB">
<feFlood flood-opacity="0" result="BackgroundImageFix"/>
<feBlend mode="normal" in="SourceGraphic" in2="BackgroundImageFix" result="shape"/>
<feGaussianBlur stdDeviation="2.86796" result="effect1_foregroundBlur_2786_21"/>
</filter>
<filter id="filter2_ddi_2786_21" x="9.81479" y="15.5508" width="253.735" height="66.3294" filterUnits="userSpaceOnUse" color-interpolation-filters="sRGB">
<feFlood flood-opacity="0" result="BackgroundImageFix"/>
<feColorMatrix in="SourceAlpha" type="matrix" values="0 0 0 0 0 0 0 0 0 0 0 0 0 0 0 0 0 0 127 0" result="hardAlpha"/>
<feOffset dy="3.72835"/>
<feGaussianBlur stdDeviation="1.43398"/>
<feColorMatrix type="matrix" values="0 0 0 0 0 0 0 0 0 0.051 0 0 0 0 0.082 0 0 0 0.7 0"/>
<feBlend mode="multiply" in2="BackgroundImageFix" result="effect1_dropShadow_2786_21"/>
<feColorMatrix in="SourceAlpha" type="matrix" values="0 0 0 0 0 0 0 0 0 0 0 0 0 0 0 0 0 0 127 0" result="hardAlpha"/>
<feOffset dy="5.73592"/>
<feGaussianBlur stdDeviation="3.72835"/>
<feColorMatrix type="matrix" values="0 0 0 0 0.0509804 0 0 0 0 0.701961 0 0 0 0 0.701961 0 0 0 1 0"/>
<feBlend mode="color-dodge" in2="effect1_dropShadow_2786_21" result="effect2_dropShadow_2786_21"/>
<feBlend mode="normal" in="SourceGraphic" in2="effect2_dropShadow_2786_21" result="shape"/>
<feColorMatrix in="SourceAlpha" type="matrix" values="0 0 0 0 0 0 0 0 0 0 0 0 0 0 0 0 0 0 127 0" result="hardAlpha"/>
<feOffset dx="-0.372835" dy="0.745669"/>
<feGaussianBlur stdDeviation="0.186417"/>
<feComposite in2="hardAlpha" operator="arithmetic" k2="-1" k3="1"/>
<feColorMatrix type="matrix" values="0 0 0 0 1 0 0 0 0 1 0 0 0 0 1 0 0 0 0.5 0"/>
<feBlend mode="normal" in2="shape" result="effect3_innerShadow_2786_21"/>
</filter>
<filter id="filter3_f_2786_21" x="18.132" y="18.1321" width="237.101" height="49.6952" filterUnits="userSpaceOnUse" color-interpolation-filters="sRGB">
<feFlood flood-opacity="0" result="BackgroundImageFix"/>
<feBlend mode="normal" in="SourceGraphic" in2="BackgroundImageFix" result="shape"/>
<feGaussianBlur stdDeviation="0.286796" result="effect1_foregroundBlur_2786_21"/>
</filter>
<filter id="filter4_f_2786_21" x="19.4706" y="19.4704" width="234.423" height="47.0185" filterUnits="userSpaceOnUse" color-interpolation-filters="sRGB">
<feFlood flood-opacity="0" result="BackgroundImageFix"/>
<feBlend mode="normal" in="SourceGraphic" in2="BackgroundImageFix" result="shape"/>
<feGaussianBlur stdDeviation="0.191197" result="effect1_foregroundBlur_2786_21"/>
</filter>
</defs>
</svg>
