<svg width="322" height="64" viewBox="0 0 322 64" fill="none" xmlns="http://www.w3.org/2000/svg">
<g filter="url(#filter0_f_395_188)">
<path d="M16.9668 61.7181C23.1808 61.7181 26.8123 58.4094 29.6368 54.7779V60.9111H41.9032V17.6558H29.6368V41.7852C29.6368 47.5956 26.6509 50.5815 21.9703 50.5815C17.2896 50.5815 14.5458 47.5956 14.5458 41.7852V17.6558H2.27942V45.6588C2.27942 55.5849 7.68633 61.7181 16.9668 61.7181Z" fill="#267AC6"/>
<path d="M52.8822 60.9111H65.1486V44.9325C65.1486 34.6029 70.152 29.6802 78.3028 29.6802H78.9484V16.8488C71.6853 16.526 67.6503 20.3996 65.1486 26.3714V17.6558H52.8822V60.9111Z" fill="#267AC6"/>
<path d="M105.928 61.8795C113.756 61.8795 119.566 58.8129 123.601 53.8095L116.58 47.5956C113.191 50.7429 110.205 52.0341 106.089 52.0341C100.602 52.0341 96.7282 49.1289 95.5177 43.5606H125.619C125.7 42.4308 125.78 41.301 125.78 40.3326C125.78 28.0662 119.163 16.8488 104.718 16.8488C92.1283 16.8488 83.332 27.017 83.332 39.3642V39.5256C83.332 52.7604 92.9353 61.8795 105.928 61.8795ZM95.3563 35.8941C96.3247 30.3258 99.6334 26.6942 104.718 26.6942C109.882 26.6942 113.11 30.4065 113.837 35.8941H95.3563Z" fill="#267AC6"/>
<path d="M155.339 61.8795C163.974 61.8795 168.816 58.5708 173.013 53.9709L165.83 46.7079C162.844 49.5324 160.02 51.3078 155.904 51.3078C149.206 51.3078 144.929 45.9816 144.929 39.3642V39.2028C144.929 32.8275 149.287 27.4205 155.42 27.4205C159.778 27.4205 162.522 29.2767 165.265 32.1819L172.77 24.1118C168.735 19.5926 163.651 16.8488 155.501 16.8488C142.266 16.8488 132.824 27.017 132.824 39.3642V39.5256C132.824 51.8727 142.347 61.8795 155.339 61.8795Z" fill="#267AC6"/>
<path d="M181.025 60.9111H193.292V47.757L197.569 43.2378L208.867 60.9111H222.909L205.881 34.6836L222.344 17.6558H207.656L193.292 33.3924V2H181.025V60.9111Z" fill="#267AC6"/>
<path d="M247.958 61.8795C261.435 61.8795 271.442 51.792 271.442 39.3642V39.2028C271.442 26.7749 261.516 16.8488 248.12 16.8488C234.643 16.8488 224.636 26.9363 224.636 39.3642V39.5256C224.636 51.9534 234.562 61.8795 247.958 61.8795ZM248.12 51.3078C241.341 51.3078 236.741 45.7395 236.741 39.3642V39.2028C236.741 32.8275 240.938 27.4205 247.958 27.4205C254.737 27.4205 259.337 32.9889 259.337 39.3642V39.5256C259.337 45.9009 255.141 51.3078 248.12 51.3078Z" fill="#267AC6"/>
<path d="M280.324 60.9111H292.591V36.7818C292.591 30.9714 295.577 27.9854 300.257 27.9854C304.938 27.9854 307.682 30.9714 307.682 36.7818V60.9111H319.948V32.9082C319.948 22.982 314.541 16.8488 305.261 16.8488C299.047 16.8488 295.415 20.1575 292.591 23.789V17.6558H280.324V60.9111Z" fill="#267AC6"/>
</g>
<defs>
<filter id="filter0_f_395_188" x="0.279419" y="0" width="321.669" height="63.8795" filterUnits="userSpaceOnUse" color-interpolation-filters="sRGB">
<feFlood flood-opacity="0" result="BackgroundImageFix"/>
<feBlend mode="normal" in="SourceGraphic" in2="BackgroundImageFix" result="shape"/>
<feGaussianBlur stdDeviation="1" result="effect1_foregroundBlur_395_188"/>
</filter>
</defs>
</svg>
