<svg version="1.2" baseProfile="tiny-ps" xmlns="http://www.w3.org/2000/svg" viewBox="0 0 50 50" width="50" height="50">
	<title>youtubeWhite-svg</title>
	<style>
		tspan { white-space:pre }
		.shp0 { fill: #ffffff } 
		.shp1 { fill: #ff0000 } 
	</style>
	<path id="Layer 1" class="shp0" d="M10 16L38 16L38 34L10 34L10 16Z" />
	<path id="Layer" fill-rule="evenodd" class="shp1" d="M46.88 25C46.88 25 46.88 32.13 45.96 35.54C45.46 37.43 43.98 38.91 42.09 39.41C38.68 40.33 25 40.33 25 40.33C25 40.33 11.32 40.33 7.91 39.41C6.03 38.91 4.54 37.43 4.04 35.54C3.13 32.13 3.13 25 3.13 25C3.13 25 3.13 17.87 4.04 14.45C4.29 13.53 4.77 12.68 5.45 12C6.13 11.32 6.98 10.83 7.91 10.58C11.32 9.67 25 9.67 25 9.67C25 9.67 38.68 9.67 42.09 10.59C43.02 10.84 43.87 11.33 44.55 12.01C45.22 12.68 45.71 13.53 45.96 14.46C46.88 17.87 46.88 25 46.88 25ZM31.98 24.95L20.65 18.46L20.65 31.54L31.98 24.95Z" />
</svg>