<svg width="47" height="35" viewBox="0 0 47 35" fill="none" xmlns="http://www.w3.org/2000/svg">
<path d="M46.0319 5.47647C45.4899 3.33529 43.9026 1.64706 41.8894 1.07059C38.2115 0 23.4999 0 23.4999 0C23.4999 0 8.78827 0 5.11036 1.02941C3.1359 1.60588 1.50988 3.33529 0.967871 5.47647C0 9.38824 0 17.5 0 17.5C0 17.5 0 25.6529 0.967871 29.5235C1.50988 31.6647 3.09719 33.3529 5.11036 33.9294C8.82698 35 23.4999 35 23.4999 35C23.4999 35 38.2115 35 41.8894 33.9706C43.9026 33.3941 45.4899 31.7059 46.0319 29.5647C46.9998 25.6529 46.9998 17.5412 46.9998 17.5412C46.9998 17.5412 47.0385 9.38824 46.0319 5.47647V5.47647Z" fill="#FF0000"/>
<path d="M31.0493 17.5L18.8154 10.0059V24.9941L31.0493 17.5Z" fill="white"/>
</svg>
