<svg width="50" height="50" viewBox="0 0 50 50" fill="none" xmlns="http://www.w3.org/2000/svg">
<path d="M45.9619 14.458C45.7129 13.5305 45.2246 12.6846 44.5459 12.0051C43.8672 11.3255 43.022 10.8362 42.0947 10.5859C38.6816 9.66797 25 9.66797 25 9.66797C25 9.66797 11.3184 9.66797 7.90527 10.5811C6.97764 10.8305 6.13196 11.3196 5.45315 11.9992C4.77435 12.6789 4.28632 13.5252 4.03809 14.4531C3.125 17.8711 3.125 25 3.125 25C3.125 25 3.125 32.1289 4.03809 35.542C4.54102 37.4268 6.02539 38.9111 7.90527 39.4141C11.3184 40.332 25 40.332 25 40.332C25 40.332 38.6816 40.332 42.0947 39.4141C43.9795 38.9111 45.459 37.4268 45.9619 35.542C46.875 32.1289 46.875 25 46.875 25C46.875 25 46.875 17.8711 45.9619 14.458ZM20.6543 31.543V18.457L31.9824 24.9512L20.6543 31.543Z" fill="white"/>
</svg>
