<svg width="22" height="24" viewBox="0 0 22 24" fill="none" xmlns="http://www.w3.org/2000/svg">
<path fill-rule="evenodd" clip-rule="evenodd" d="M19.8412 4.51464L12.9674 0.544248C12.3498 0.187705 11.6493 0 10.9362 0C10.2231 0 9.52259 0.187705 8.90504 0.544248L2.03116 4.51464C1.41375 4.8711 0.901023 5.38376 0.544488 6.00113C0.187953 6.6185 0.000168212 7.31883 0 8.03175V15.9704C0.000168212 16.6833 0.187953 17.3836 0.544488 18.001C0.901023 18.6184 1.41375 19.131 2.03116 19.4875L8.90504 23.4558C9.52259 23.8123 10.2231 24 10.9362 24C11.6493 24 12.3498 23.8123 12.9674 23.4558L19.8412 19.4875C20.4587 19.131 20.9714 18.6184 21.3279 18.001C21.6845 17.3836 21.8722 16.6833 21.8724 15.9704V8.03175C21.8722 7.31883 21.6845 6.6185 21.3279 6.00113C20.9714 5.38376 20.4587 4.8711 19.8412 4.51464ZM13.1893 6.69787V6.4142H13.6163V6.69787C13.6163 7.06377 13.5227 7.42686 13.344 7.74598C13.1653 8.06507 12.9072 8.3374 12.5966 8.53028L11.3811 9.28622L12.5143 9.98969C12.7129 10.1131 12.8902 10.2663 13.0433 10.4407H8.91458C9.06775 10.2648 9.24503 10.1131 9.44359 9.98969L10.5754 9.28622L9.35992 8.53028C9.04933 8.33741 8.7912 8.0665 8.61249 7.74598C8.43379 7.42686 8.34018 7.06377 8.34018 6.69787V6.4142H8.76566V6.69787C8.76566 6.72198 8.76566 6.74467 8.76708 6.76878H13.1879C13.1893 6.74467 13.1893 6.72198 13.1893 6.69787ZM9.79249 8.29903L10.9768 9.03512L12.1596 8.29903H9.79249ZM8.83665 7.1942C8.91181 7.44807 9.04513 7.68067 9.22525 7.87498H12.7299C12.9101 7.68068 13.042 7.44807 13.1171 7.1942H8.83665ZM8.34992 11.7597H13.6047C13.5763 11.4477 13.4841 11.1428 13.3366 10.8662H8.6194C8.47047 11.1428 8.37828 11.4477 8.34992 11.7597ZM13.3353 13.0788C13.4842 12.8023 13.5764 12.4973 13.6047 12.1853H8.34857C8.37694 12.4973 8.46913 12.8023 8.61805 13.0788H13.3353ZM13.3423 16.1989C13.165 15.8784 12.9054 15.6075 12.5949 15.4146L11.3794 14.6587L12.5126 13.9552C12.7112 13.8318 12.8884 13.6801 13.0416 13.5042H8.91285C9.06461 13.6786 9.2433 13.8318 9.44186 13.9552L10.5737 14.6587L9.35819 15.4146C9.04758 15.6075 8.78945 15.8798 8.61077 16.1989C8.43348 16.5194 8.33845 16.8811 8.33845 17.2485V17.5321H8.76393V17.2485C8.76393 17.2244 8.76393 17.2017 8.76535 17.1775H13.1861C13.1875 17.2017 13.1875 17.2244 13.1875 17.2485V17.5321H13.613V17.2485C13.6144 16.8811 13.521 16.518 13.3423 16.1989ZM10.9766 14.9097L12.1608 15.6458H9.79374L10.9766 14.9097ZM8.83639 16.7506C8.91156 16.4968 9.04346 16.2642 9.22499 16.0699H12.7295C12.9096 16.2642 13.043 16.4968 13.1181 16.7506H8.83639Z" fill="white"/>
</svg>
