<svg width="22" height="24" viewBox="0 0 22 24" fill="none" xmlns="http://www.w3.org/2000/svg">
<path fill-rule="evenodd" clip-rule="evenodd" d="M19.8412 4.51464L12.9674 0.544248C12.3498 0.187705 11.6493 0 10.9362 0C10.2231 0 9.52259 0.187705 8.90504 0.544248L2.03116 4.51464C1.41375 4.8711 0.901023 5.38377 0.544488 6.00113C0.187953 6.6185 0.000168212 7.31883 0 8.03175V15.9704C0.000168212 16.6833 0.187953 17.3836 0.544488 18.001C0.901023 18.6184 1.41375 19.131 2.03116 19.4875L8.90504 23.4558C9.52259 23.8123 10.2231 24 10.9362 24C11.6493 24 12.3498 23.8123 12.9674 23.4558L19.8412 19.4875C20.4587 19.131 20.9714 18.6184 21.3279 18.001C21.6845 17.3836 21.8722 16.6833 21.8724 15.9704V8.03175C21.8722 7.31883 21.6845 6.6185 21.3279 6.00113C20.9714 5.38377 20.4587 4.8711 19.8412 4.51464ZM6.75957 15.2083C6.93191 15.3807 7.15823 15.4673 7.38454 15.4673C7.61086 15.4673 7.83706 15.3806 8.00941 15.2082C8.35501 14.8626 8.35501 14.304 8.00941 13.9584L5.98256 11.9315L8.00941 9.90468C8.35501 9.55911 8.35501 9.00043 8.00941 8.65483C7.66384 8.30924 7.10517 8.30924 6.75957 8.65483L4.10775 11.3067C3.76215 11.6522 3.76215 12.2109 4.10775 12.5565L6.75957 15.2083ZM13.8311 15.2083C14.0034 15.3807 14.2298 15.4673 14.4561 15.4673C14.6824 15.4673 14.9086 15.3808 15.0809 15.2084L17.7328 12.5566C18.0784 12.211 18.0784 11.6524 17.7328 11.3068L15.0809 8.65494C14.7354 8.30934 14.1767 8.30934 13.8311 8.65494C13.4855 9.00051 13.4855 9.55918 13.8311 9.90478L15.8579 11.9316L13.8311 13.9585C13.4855 14.304 13.4855 14.8627 13.8311 15.2083ZM9.89496 17.3015L10.0646 17.3182C10.4792 17.3182 10.8488 17.0257 10.9318 16.6032L12.6723 7.68172C12.766 7.20265 12.4531 6.73769 11.974 6.64485C11.4958 6.55022 11.03 6.86405 10.9372 7.34312L9.1967 16.2646C9.10298 16.7437 9.41589 17.2086 9.89496 17.3015Z" fill="white"/>
</svg>
