<svg width="22" height="24" viewBox="0 0 22 24" fill="none" xmlns="http://www.w3.org/2000/svg">
<path fill-rule="evenodd" clip-rule="evenodd" d="M21.4849 7.52423C21.4182 6.98523 21.2455 6.46536 20.9773 5.99547C20.7091 5.52558 20.3507 5.11525 19.9235 4.78884C19.7936 4.68929 19.6581 4.5976 19.5177 4.51425L18.3363 3.82317L16.674 2.84568L12.8532 0.604286L12.7563 0.546477C12.1878 0.212583 11.5473 0.0257964 10.8911 0.00255333C10.551 -0.00982798 10.2108 0.0228574 9.87903 0.0997755C9.48611 0.189865 9.10876 0.339567 8.75968 0.543851L8.01387 0.983985L2.00088 4.51425C1.66622 4.71163 1.36148 4.95724 1.09609 5.24342C0.731262 5.63348 0.446526 6.09352 0.258512 6.59667C0.200984 6.74933 0.15305 6.90555 0.115024 7.06439C0.0388778 7.38135 0.000252453 7.70641 0 8.03269V15.9695C0.000126227 16.2624 0.0313042 16.5545 0.0930605 16.8406C0.126889 16.9977 0.170059 17.1526 0.222316 17.3044C0.538167 18.2248 1.16829 18.9996 1.99829 19.488L8.75968 23.4557C9.36724 23.8123 10.0564 24 10.758 24C11.4595 24 12.1487 23.8123 12.7563 23.4557L12.8636 23.3914L14.0773 22.6806L14.4405 22.4664L16.6908 21.1526L18.4047 20.1462L19.5189 19.4893C19.6806 19.3937 19.8356 19.287 19.983 19.17C20.5354 18.7311 20.9642 18.1519 21.2264 17.491C21.3703 17.1306 21.4617 16.7509 21.4979 16.3637C21.5109 16.2327 21.5174 16.1012 21.5172 15.9695V8.03269C21.517 7.86268 21.5062 7.69286 21.4849 7.52423ZM6.63815 7.32276L11.7323 6.62806L12.0335 8.30894H16.1323L12.6643 11.1748L12.0133 9.86918L7.94277 11.7431L6.63815 7.32276ZM8.99723 17.0887L6.02007 6.89498L5.25867 7.12472L8.23583 17.3185L8.99723 17.0887Z" fill="white"/>
</svg>
