<svg width="22" height="24" viewBox="0 0 22 24" fill="none" xmlns="http://www.w3.org/2000/svg">
<path fill-rule="evenodd" clip-rule="evenodd" d="M19.8421 4.51464L12.9679 0.544248C12.3503 0.187705 11.6498 0 10.9367 0C10.2236 0 9.523 0.187705 8.90542 0.544248L2.03125 4.51464C1.41381 4.8711 0.901061 5.38376 0.544511 6.00113C0.187961 6.6185 0.000168219 7.31883 0 8.03175V15.9704C0.000168219 16.6833 0.187961 17.3836 0.544511 18.001C0.901061 18.6184 1.41381 19.131 2.03125 19.4875L8.90542 23.4558C9.523 23.8123 10.2236 24 10.9367 24C11.6498 24 12.3503 23.8123 12.9679 23.4558L19.8421 19.4875C20.4595 19.131 20.9723 18.6184 21.3288 18.001C21.6854 17.3836 21.8732 16.6833 21.8733 15.9704V8.03175C21.8732 7.31883 21.6854 6.6185 21.3288 6.00113C20.9723 5.38376 20.4595 4.8711 19.8421 4.51464ZM11.1546 9.20394L9.98604 9.99882C9.95919 10.0169 9.9246 10.0188 9.896 10.0035C9.86749 9.98833 9.84966 9.95855 9.84974 9.92623V9.20628H9.43863C9.32344 9.20628 9.21301 9.16058 9.1315 9.07931C9.04991 8.99795 9.00397 8.88761 9.00373 8.77244V6.63534C9.00373 6.52001 9.04952 6.40935 9.13111 6.32784C9.21261 6.24625 9.32328 6.20039 9.43862 6.20039H12.4571C12.5725 6.20039 12.6831 6.24625 12.7647 6.32784C12.8462 6.40934 12.8921 6.52001 12.8921 6.63534V8.76899C12.8921 8.8844 12.8462 8.99498 12.7647 9.07657C12.6831 9.15816 12.5725 9.20394 12.4571 9.20394H11.1546ZM11.1035 8.52256V8.37499C11.1035 8.35091 11.0939 8.32778 11.0769 8.31075C11.0599 8.29372 11.0367 8.28413 11.0127 8.28413H10.7787C10.7285 8.28413 10.6879 8.32477 10.6879 8.37499V8.52264C10.6879 8.57278 10.7285 8.61341 10.7787 8.61341H11.0127C11.0367 8.61341 11.0599 8.60391 11.0769 8.58688C11.0939 8.56977 11.1035 8.54664 11.1035 8.52256ZM10.9343 6.79084C10.7767 6.78331 10.6211 6.82886 10.4925 6.92027C10.3903 7.00099 10.3306 7.12393 10.3302 7.25415C10.3289 7.27007 10.3343 7.28583 10.345 7.29772C10.3558 7.30952 10.3709 7.31633 10.387 7.31665H10.6526C10.6956 7.31807 10.7341 7.29066 10.7469 7.24963C10.7551 7.21827 10.772 7.18991 10.7958 7.16789C10.8336 7.13359 10.8832 7.11529 10.9343 7.1168C10.9933 7.11315 11.051 7.13549 11.0921 7.17811C11.131 7.22429 11.1509 7.28354 11.1478 7.3439C11.1499 7.40695 11.1337 7.46921 11.1012 7.52331C11.0682 7.57559 11.0235 7.61947 10.9706 7.65163C10.8865 7.70534 10.8117 7.77251 10.7492 7.85037C10.7135 7.90701 10.6933 7.97196 10.6901 8.03882C10.6889 8.0568 10.6952 8.07446 10.7074 8.08761C10.7197 8.10076 10.7369 8.10812 10.7549 8.10812H11.0433C11.0766 8.10828 11.1045 8.08325 11.108 8.05022C11.1104 8.01426 11.1189 7.97893 11.1331 7.94574C11.1573 7.89869 11.1943 7.85932 11.2398 7.83215C11.333 7.78384 11.4132 7.71373 11.4737 7.62779C11.5337 7.54533 11.566 7.44584 11.5657 7.3439C11.5738 7.19062 11.512 7.04193 11.3976 6.93959C11.2668 6.83472 11.1018 6.78173 10.9343 6.79084ZM16.0571 16.8906V15.9436C16.0575 15.7448 15.9694 15.5562 15.8164 15.4292C15.2068 14.9395 14.5463 14.5169 13.8461 14.1687C13.825 14.1583 13.8118 14.1366 13.812 14.1131V13.476C13.9076 13.3155 13.9731 13.1389 14.0051 12.9548C14.0778 12.9492 14.1742 12.8458 14.2776 12.4802C14.415 11.993 14.2788 11.9124 14.1549 11.9124C14.4627 10.4906 13.6678 10.4906 13.6678 10.4906C13.6008 10.1931 13.1795 9.88428 12.7854 9.96602C12.3914 10.0478 11.5806 9.9558 11.5806 9.9558C11.5812 10.0674 11.6305 10.1732 11.7157 10.2453C11.0037 10.6803 11.166 11.6365 11.2307 11.9113C11.1092 11.9113 10.9843 12.0078 11.1172 12.4791C11.2205 12.8401 11.317 12.948 11.3897 12.9537C11.421 13.1379 11.4857 13.315 11.5805 13.476V14.1063C11.5808 14.1298 11.5676 14.1514 11.5465 14.1619C11.2068 14.3311 10.8763 14.5179 10.5562 14.7218C10.2451 14.5411 10.0077 14.4219 9.9248 14.3811C9.90532 14.3715 9.89296 14.3517 9.89304 14.33V13.7235C9.98129 13.5762 10.0414 13.4137 10.0702 13.2444C10.1372 13.2387 10.2257 13.1478 10.3211 12.8071C10.4517 12.3461 10.3098 12.278 10.1962 12.2893C10.2184 12.2276 10.2354 12.1642 10.2473 12.0997C10.446 10.9061 9.85779 10.8642 9.85779 10.8642C9.77128 10.7252 9.64889 10.6123 9.50346 10.5372C9.28339 10.4098 9.02832 10.3561 8.77554 10.3838C8.67693 10.3887 8.57941 10.4075 8.48594 10.4395C8.37244 10.4787 8.26502 10.5338 8.16687 10.603C8.04727 10.6799 7.93779 10.7715 7.84091 10.8756C7.66798 11.0461 7.54543 11.261 7.48666 11.4967C7.44048 11.6966 7.44048 11.9044 7.48666 12.1042C7.49846 12.1688 7.51557 12.2321 7.53775 12.2938C7.42075 12.2824 7.2822 12.3507 7.41283 12.8117C7.5082 13.1489 7.59676 13.2489 7.66378 13.2489C7.69269 13.4184 7.75242 13.5812 7.83979 13.7292V14.3334C7.83987 14.3551 7.82752 14.3749 7.80803 14.3845C7.16561 14.7051 6.55946 15.0938 6.00012 15.5439C5.85691 15.6599 5.7735 15.8343 5.77302 16.0186V16.8907L16.0571 16.8906Z" fill="white"/>
</svg>
