<svg width="198" height="30" viewBox="0 0 198 30" fill="none" xmlns="http://www.w3.org/2000/svg">
<path fill-rule="evenodd" clip-rule="evenodd" d="M17.214 16.9252L34.6789 29.5H197.001V27.5H35.324L18.4497 15.3505C19.4315 13.8033 20 11.968 20 10C20 4.47715 15.5228 0 10 0C4.47716 0 0 4.47715 0 10C0 15.5228 4.47716 20 10 20C12.8349 20 15.3942 18.8204 17.214 16.9252ZM10 19C5.02943 19 1 14.9706 1 10C1 5.02944 5.02943 1 10 1C14.9706 1 19 5.02944 19 10C19 11.7499 18.5006 13.3832 17.6365 14.765L15.022 12.8825C15.5102 12.0337 15.7895 11.0495 15.7895 10C15.7895 6.80256 13.1974 4.21053 10 4.21053C6.80257 4.21053 4.21053 6.80256 4.21053 10C4.21053 13.1974 6.80257 15.7895 10 15.7895C11.4244 15.7895 12.7286 15.2751 13.7371 14.4219L16.3934 16.3344C14.7624 17.9804 12.5003 19 10 19Z" fill="white"/>
</svg>
